<?xml version="1.0" encoding="UTF-8" standalone="no"?>
<!-- Created with Inkscape (http://www.inkscape.org/) -->

<svg
   xmlns:dc="http://purl.org/dc/elements/1.1/"
   xmlns:cc="http://creativecommons.org/ns#"
   xmlns:rdf="http://www.w3.org/1999/02/22-rdf-syntax-ns#"
   xmlns:svg="http://www.w3.org/2000/svg"
   xmlns="http://www.w3.org/2000/svg"
   xmlns:sodipodi="http://sodipodi.sourceforge.net/DTD/sodipodi-0.dtd"
   xmlns:inkscape="http://www.inkscape.org/namespaces/inkscape"
   width="500"
   height="500"
   id="svg2"
   version="1.1"
   inkscape:version="0.91 r13725"
   sodipodi:docname="milch.svg">
  <defs
     id="defs4" />
  <sodipodi:namedview
     id="base"
     pagecolor="#ffffff"
     bordercolor="#666666"
     borderopacity="1.0"
     inkscape:pageopacity="0.0"
     inkscape:pageshadow="2"
     inkscape:zoom="1.0988439"
     inkscape:cx="156.30651"
     inkscape:cy="216.94844"
     inkscape:document-units="px"
     inkscape:current-layer="layer2"
     showgrid="false"
     inkscape:snap-bbox="true"
     inkscape:bbox-paths="true"
     inkscape:bbox-nodes="true"
     inkscape:snap-bbox-edge-midpoints="true"
     inkscape:snap-bbox-midpoints="true"
     inkscape:object-paths="true"
     inkscape:snap-intersection-paths="true"
     inkscape:object-nodes="true"
     inkscape:snap-smooth-nodes="true"
     inkscape:snap-midpoints="true"
     inkscape:snap-page="true"
     inkscape:window-width="1426"
     inkscape:window-height="866"
     inkscape:window-x="19"
     inkscape:window-y="37"
     inkscape:window-maximized="0"
     inkscape:snap-global="true" />
  <metadata
     id="metadata7">
    <rdf:RDF>
      <cc:Work
         rdf:about="">
        <dc:format>image/svg+xml</dc:format>
        <dc:type
           rdf:resource="http://purl.org/dc/dcmitype/StillImage" />
        <dc:title />
      </cc:Work>
    </rdf:RDF>
  </metadata>
  <g
     inkscape:groupmode="layer"
     id="layer2"
     inkscape:label="Milch">
    <rect
       style="opacity:1;fill:#252525;fill-opacity:0;stroke:none;stroke-width:4;stroke-linecap:round;stroke-linejoin:miter;stroke-miterlimit:4;stroke-dasharray:none;stroke-dashoffset:0;stroke-opacity:1"
       id="rect4612"
       width="500"
       height="500"
       x="0"
       y="0" />
    <path
       style="fill:#98b3d9"
       inkscape:connector-curvature="0"
       d="M 312.9895,70.072 245.01513,97.706441 192.05839,69.958201 191.87938,44.992284 313.3329,44.570606 312.9895,70.072 Z"
       id="path2997" />
    <path
       style="fill:#6a85ab"
       inkscape:connector-curvature="0"
       d="m 262.21102,185.25351 27.43324,-28.26435 27.43323,-28.26436 6.66812,-21.61405 13.28325,0 0,81.67638 0,81.67592 0,81.67592 0,81.67591 -9.97523,10.80726 -9.97614,10.80725 -66.9204,-10.80725 -66.9204,-10.80726 22.03006,-63.17946 22.02916,-63.17947 17.45801,-61.10076 17.4571,-61.10168 z"
       id="path2999" />
    <path
       style="fill:#b1c4de"
       inkscape:connector-curvature="0"
       d="m 163.28532,128.7248 153.79217,0 0,326.70459 -153.79217,0 0,-326.70459 z"
       id="path3001" />
    <path
       style="fill:#7fa0ce"
       inkscape:connector-curvature="0"
       d="m 183.23669,107.11075 153.79217,0 -19.95137,21.61405 -153.79217,0 19.95137,-21.61405 z"
       id="path3003" />
    <path
       style="fill:#7e94b3"
       inkscape:connector-curvature="0"
       d="M 337.02886,107.11075 325.00963,88.591377 312.9895,70.072 l -14.07693,27.639191 18.16492,31.013609 9.97614,-10.80725 9.97523,-10.8068 z"
       id="path3005" />
    <path
       style="fill:#86a8d9"
       inkscape:connector-curvature="0"
       d="M 163.28532,128.7248 192.05839,69.958201 312.9895,70.072 l 4.08799,58.6528"
       id="path3007" />
    <path
       style="fill:#273260"
       inkscape:connector-curvature="0"
       d="m 281.28195,272.10884 36.05036,-45.49404 19.69655,-18.41608 0,104.48778 -19.69655,19.11112 -36.05036,-59.68878 z"
       id="path3009" />
    <path
       style="fill:#2f3b73"
       inkscape:connector-curvature="0"
       d="m 162.97114,226.6148 38.59029,0 38.5903,0 38.59029,0 38.59029,0 0,105.18282 -38.59029,0 -38.59029,0 -38.5903,0 -38.59029,0 0,-26.29616 0,-26.29525 0,-26.29616 0,-26.29525 z"
       id="path3011" />
    <circle
       style="opacity:1;fill:none;fill-opacity:1;stroke:#ffffff;stroke-width:4;stroke-linecap:round;stroke-linejoin:miter;stroke-miterlimit:4;stroke-dasharray:none;stroke-dashoffset:0;stroke-opacity:1"
       id="path4600"
       cx="240.15172"
       cy="279.20621"
       r="35.87516" />
    <path
       sodipodi:type="star"
       style="opacity:1;fill:#ffffff;fill-opacity:1;stroke:none;stroke-width:8.0170002;stroke-linecap:round;stroke-linejoin:miter;stroke-miterlimit:4;stroke-dasharray:none;stroke-dashoffset:0;stroke-opacity:1"
       id="path4610"
       sodipodi:sides="5"
       sodipodi:cx="240.15172"
       sodipodi:cy="281.14404"
       sodipodi:r1="26.656525"
       sodipodi:r2="14.612557"
       sodipodi:arg1="-1.5707963"
       sodipodi:arg2="-0.94247777"
       inkscape:flatsided="false"
       inkscape:rounded="0"
       inkscape:randomized="0"
       d="m 240.15172,254.48752 8.58904,14.83472 16.76282,3.58448 -11.45449,12.75285 1.77094,17.05005 -15.66831,-6.95302 -15.66831,6.95302 1.77094,-17.05005 -11.45449,-12.75285 16.76281,-3.58448 z"
       inkscape:transform-center-y="-2.5454715" />
  </g>
</svg>
