<?xml version="1.0" encoding="UTF-8" standalone="no"?>
<!DOCTYPE svg  PUBLIC '-//W3C//DTD SVG 1.1//EN'  'http://www.w3.org/Graphics/SVG/1.1/DTD/svg11.dtd'>
<svg id="flash0.ai" style="enable-background:new 0 0 90.05 29.8" xmlns="http://www.w3.org/2000/svg" xml:space="preserve" height="29.8px" viewBox="0 0 90.05 29.8" width="90.05px" version="1.1" y="0px" x="0px" xmlns:xlink="http://www.w3.org/1999/xlink">
<g clip-rule="evenodd" fill-rule="evenodd">
		<linearGradient id="SVGID_1_" y2="42.92" gradientUnits="userSpaceOnUse" x2="48.241" gradientTransform="matrix(.7436 -.5069 .5069 .7436 .3001 .4501)" y1="42.92" x1="28.091">
		<stop stop-color="#fff" offset="0"/>
		<stop stop-color="#B6DAF0" offset="1"/>
	</linearGradient>
	<path d="m44.714 24.3c-10.53 0-19.02-1.125-25.47-3.375-3.24-1.14-5.43-2.279-6.57-3.42 1.89-0.27 4.275-1.319 7.155-3.149 5.28-3.36 8.34-5.265 9.18-5.715 5.01-2.73 9.33-5.46 12.959-8.19l3.419 2.205c3.391 2.07 7.921 4.515 13.591 7.335 5.939 2.97 10.949 5.7 15.03 8.19-1.261 1.02-3.421 2.039-6.48 3.059-6.118 2.039-13.723 3.06-22.814 3.06z" fill="url(#SVGID_1_)"/>
		<linearGradient id="SVGID_2_" y2="24.109" gradientUnits="userSpaceOnUse" x2=".6313" gradientTransform="matrix(.746 -.5035 .5035 .746 .2994 .4501)" y1="24.109" x1="-.5752">
		<stop stop-color="#D6E6FF" offset="0"/>
		<stop stop-color="#94BDD4" offset="1"/>
	</linearGradient>
	<path d="m12.99 17.505c1.08 1.229 0.99 1.935-0.27 2.115-1.38 0.18-2.16-0.045-2.34-0.675-0.15-0.45 0.15-0.9 0.9-1.351 0.78-0.479 1.35-0.509 1.71-0.089z" fill="url(#SVGID_2_)"/>
		<linearGradient id="SVGID_3_" y2="22.807" gradientUnits="userSpaceOnUse" x2="-3.9791" gradientTransform="matrix(.746 -.5035 .5035 .746 .2994 .4501)" y1="22.807" x1="-5.1855">
		<stop stop-color="#D6E6FF" offset="0"/>
		<stop stop-color="#94BDD4" offset="1"/>
	</linearGradient>
	<path d="m8.31 19.125c1.65 0.601 1.89 1.095 0.72 1.485-1.26 0.419-2.13 0.404-2.61-0.046-0.33-0.329-0.209-0.705 0.36-1.125 0.57-0.388 1.08-0.494 1.53-0.314z" fill="url(#SVGID_3_)"/>
		<linearGradient id="SVGID_4_" y2="19.243" gradientUnits="userSpaceOnUse" x2="-11.619" gradientTransform="matrix(.7373 -.5161 .5161 .7373 .2994 .4502)" y1="19.243" x1="-12.229">
		<stop stop-color="#D6E6FF" offset="0"/>
		<stop stop-color="#94BDD4" offset="1"/>
	</linearGradient>
	<path d="m1.02 20.564c0.3 0.15 0.706 0.331 1.215 0.541 0.24 0.119-0.015 0.18-0.765 0.18-0.81 0-1.2-0.165-1.17-0.495 0.03-0.39 0.27-0.465 0.72-0.226z" fill="url(#SVGID_4_)"/>
		<linearGradient id="SVGID_5_" y2="27.967" gradientUnits="userSpaceOnUse" x2="-.0483" gradientTransform="matrix(.7488 -.4992 .4992 .7488 .2999 .4501)" y1="27.967" x1="-.9497">
		<stop stop-color="#D6E6FF" offset="0"/>
		<stop stop-color="#94BDD4" offset="1"/>
	</linearGradient>
	<path d="m13.89 21.15c1.08 0.39 1.365 0.72 0.855 0.989-0.48 0.271-1.11 0.33-1.89 0.181-0.63-0.12-0.735-0.391-0.315-0.81 0.42-0.42 0.87-0.54 1.35-0.36z" fill="url(#SVGID_5_)"/>
		<linearGradient id="SVGID_6_" y2="28.119" gradientUnits="userSpaceOnUse" x2="3.7891" gradientTransform="matrix(.7488 -.4992 .4992 .7488 .2999 .4501)" y1="28.119" x1="3.3384">
		<stop stop-color="#D6E6FF" offset="0"/>
		<stop stop-color="#94BDD4" offset="1"/>
	</linearGradient>
	<path d="m16.95 19.53c0.6 0.09 0.765 0.255 0.495 0.495-0.299 0.239-0.615 0.27-0.945 0.089-0.3-0.149-0.405-0.284-0.315-0.404 0.09-0.149 0.345-0.21 0.765-0.18z" fill="url(#SVGID_6_)"/>
		<linearGradient id="SVGID_7_" y2="30.604" gradientUnits="userSpaceOnUse" x2="4.4655" gradientTransform="matrix(.7488 -.4992 .4992 .7488 .2994 .4501)" y1="30.604" x1="4.105">
		<stop stop-color="#D6E6FF" offset="0"/>
		<stop stop-color="#94BDD4" offset="1"/>
	</linearGradient>
	<path d="m18.75 21.105c0.69 0.18 0.555 0.3-0.405 0.359-0.18-0.03-0.21-0.104-0.09-0.226 0.12-0.118 0.285-0.163 0.495-0.133z" fill="url(#SVGID_7_)"/>
		<linearGradient id="SVGID_8_" y2="38.108" gradientUnits="userSpaceOnUse" x2="11.369" gradientTransform="matrix(.742 -.5094 .5094 .742 .2991 .4495)" y1="38.108" x1="9.3369">
		<stop stop-color="#D6E6FF" offset="0"/>
		<stop stop-color="#94BDD4" offset="1"/>
	</linearGradient>
	<path d="m28.245 22.86c0.87 0.119 1.29 0.495 1.26 1.125-0.03 0.33-0.075 0.72-0.135 1.17 0.21 0.18 0 0.314-0.63 0.405-0.57 0.09-1.11 0.09-1.62 0-0.36-0.061-0.615-0.226-0.765-0.496-0.15-0.3-0.285-0.479-0.405-0.539-0.63-0.121-1.41-0.405-2.34-0.855-0.629-0.3-0.645-0.585-0.044-0.855 0.6-0.239 1.125-0.27 1.575-0.09 0.18 0.061 0.495 0.075 0.945 0.045 0.629-0.03 1.349 0 2.159 0.09z" fill="url(#SVGID_8_)"/>
		<linearGradient id="SVGID_9_" y2="36.891" gradientUnits="userSpaceOnUse" x2="7.1126" gradientTransform="matrix(.7409 -.511 .511 .7409 .3 .45)" y1="36.891" x1="6.2319">
		<stop stop-color="#D6E6FF" offset="0"/>
		<stop stop-color="#94BDD4" offset="1"/>
	</linearGradient>
	<path d="m24.375 24.21c0.63 0.149 0.885 0.315 0.765 0.495-0.12 0.149-0.42 0.255-0.9 0.314-0.45 0.061-0.765 0.076-0.945 0.045-0.24-0.029-0.48-0.149-0.72-0.359-0.24-0.24-0.09-0.405 0.45-0.495 0.51-0.09 0.96-0.09 1.35 0z" fill="url(#SVGID_9_)"/>
		<linearGradient id="SVGID_10_" y2="23.6" gradientUnits="userSpaceOnUse" x2="3.7461" gradientTransform="matrix(.7451 -.5048 .5048 .7451 .3 .45)" y1="23.6" x1="2.8101">
		<stop stop-color="#D6E6FF" offset="0"/>
		<stop stop-color="#94BDD4" offset="1"/>
	</linearGradient>
	<path d="m15.645 16.695c-0.63 0.3-1.17 0.42-1.62 0.36-0.81-0.061-1.125-0.15-0.945-0.271 0.12-0.239 0.255-0.435 0.405-0.585 0.3-0.27 0.705-0.346 1.215-0.226 0.779 0.182 1.095 0.423 0.945 0.722z" fill="url(#SVGID_10_)"/>
		<linearGradient id="SVGID_11_" y2="23.255" gradientUnits="userSpaceOnUse" x2="-2.1703" gradientTransform="matrix(.7416 -.5099 .5099 .7416 .2997 .4501)" y1="23.255" x1="-2.6558">
		<stop stop-color="#D6E6FF" offset="0"/>
		<stop stop-color="#94BDD4" offset="1"/>
	</linearGradient>
	<path d="m10.83 19.306c-0.12 0.18-0.36 0.255-0.72 0.225-0.24-0.03-0.405-0.136-0.495-0.315-0.09-0.149-0.09-0.3 0-0.45 0.09-0.21 0.39-0.27 0.9-0.18 0.21 0.029 0.315 0.269 0.315 0.72z" fill="url(#SVGID_11_)"/>
		<linearGradient id="SVGID_12_" y2="23.005" gradientUnits="userSpaceOnUse" x2="-5.9246" gradientTransform="matrix(.7533 -.4925 .4925 .7533 .2996 .4499)" y1="23.005" x1="-6.7012">
		<stop stop-color="#D6E6FF" offset="0"/>
		<stop stop-color="#94BDD4" offset="1"/>
	</linearGradient>
	<path d="m7.77 21.061c-0.3 0.329-0.735 0.495-1.305 0.495-0.36 0-0.645-0.061-0.855-0.181l-0.18-0.225c0.089-0.09 0.194-0.195 0.314-0.315 0.24-0.21 0.465-0.3 0.675-0.271 0.721 0.061 1.171 0.226 1.351 0.497z" fill="url(#SVGID_12_)"/>
		<linearGradient id="SVGID_13_" y2="20.797" gradientUnits="userSpaceOnUse" x2="-9.5705" gradientTransform="matrix(.74 -.5123 .5123 .74 .2999 .4499)" y1="20.797" x1="-9.9658">
		<stop stop-color="#D6E6FF" offset="0"/>
		<stop stop-color="#94BDD4" offset="1"/>
	</linearGradient>
	<path d="m3.9 20.7c0.39 0 0.39 0.12 0 0.36-0.39 0.21-0.645 0.24-0.765 0.09-0.12-0.121-0.075-0.226 0.135-0.315 0.15-0.09 0.36-0.135 0.63-0.135z" fill="url(#SVGID_13_)"/>
		<linearGradient id="SVGID_14_" y2="26.592" gradientUnits="userSpaceOnUse" x2="-3.6612" gradientTransform="matrix(.7488 -.4992 .4992 .7488 .2994 .4501)" y1="26.592" x1="-4.3823">
		<stop stop-color="#D6E6FF" offset="0"/>
		<stop stop-color="#94BDD4" offset="1"/>
	</linearGradient>
	<path d="m10.605 22.186c0.48 0.06 0.72 0.164 0.72 0.314 0 0.12-0.165 0.225-0.495 0.314-0.75 0.24-1.245 0.24-1.485 0-0.15-0.179-0.075-0.345 0.225-0.494s0.645-0.195 1.035-0.134z" fill="url(#SVGID_14_)"/>
		<linearGradient id="SVGID_15_" y2="34.579" gradientUnits="userSpaceOnUse" x2="2.8105" gradientTransform="matrix(.7423 -.509 .509 .7423 .3001 .4502)" y1="34.579" x1="1.7495">
		<stop stop-color="#D6E6FF" offset="0"/>
		<stop stop-color="#94BDD4" offset="1"/>
	</linearGradient>
	<path d="m19.83 24.614c0.959 0.121 1.23 0.421 0.81 0.9-0.45 0.511-1.17 0.585-2.16 0.225-0.96-0.329-1.17-0.629-0.63-0.899 0.51-0.24 1.17-0.315 1.98-0.226z" fill="url(#SVGID_15_)"/>
		<linearGradient id="SVGID_16_" y2="46.854" gradientUnits="userSpaceOnUse" x2="22.859" gradientTransform="matrix(.7433 -.5074 .5074 .7433 .3003 .4501)" y1="46.854" x1="19.711">
		<stop stop-color="#D6E6FF" offset="0"/>
		<stop stop-color="#94BDD4" offset="1"/>
	</linearGradient>
	<path d="m37.469 26.46c-1.05 0-1.92-0.165-2.61-0.495-0.57-0.27-0.81-0.54-0.72-0.81 0.15-0.42 0.345-0.766 0.585-1.035 0.3-0.33 0.78-0.69 1.44-1.08 0.69-0.39 1.575-0.495 2.655-0.315 0.9 0.15 1.74 0.45 2.52 0.9 0.63 0.36 1.23 0.796 1.8 1.306 0.511 0.449 0.766 0.72 0.766 0.809 0 0.091-0.781 0.226-2.341 0.405-1.649 0.209-3.015 0.315-4.095 0.315z" fill="url(#SVGID_16_)"/>
		<linearGradient id="SVGID_17_" y2="51.283" gradientUnits="userSpaceOnUse" x2="25.911" gradientTransform="matrix(.743 -.5079 .5079 .743 .2998 .4506)" y1="51.283" x1="23.519">
		<stop stop-color="#D6E6FF" offset="0"/>
		<stop stop-color="#94BDD4" offset="1"/>
	</linearGradient>
	<path d="m45.524 25.11c0.27 0.149 0.9 0.6 1.89 1.35-0.21 0.6-0.915 1.02-2.114 1.26-0.84 0.15-1.696 0.181-2.565 0.091-0.78-0.091-1.411-0.24-1.891-0.45-0.36-0.18-0.314-0.511 0.135-0.99 0.21-0.271 0.555-0.631 1.035-1.08 0.24-0.3 0.706-0.495 1.396-0.585 0.779-0.092 1.485 0.044 2.114 0.404z" fill="url(#SVGID_17_)"/>
		<linearGradient id="SVGID_18_" y2="47.414" gradientUnits="userSpaceOnUse" x2="16.725" gradientTransform="matrix(.7447 -.5053 .5053 .7447 .3003 .4497)" y1="47.414" x1="15.033">
		<stop stop-color="#D6E6FF" offset="0"/>
		<stop stop-color="#94BDD4" offset="1"/>
	</linearGradient>
	<path d="m37.694 27.585c0.39 0.45 0.45 0.78 0.18 0.99-0.21 0.21-0.87 0.27-1.98 0.18-0.93-0.06-1.725-0.165-2.385-0.315-0.42-0.09-0.6-0.225-0.54-0.404 0.03-0.12 0.271-0.36 0.72-0.721 0.6-0.51 1.47-0.675 2.61-0.494 0.511 0.059 0.976 0.315 1.395 0.764z" fill="url(#SVGID_18_)"/>
		<linearGradient id="SVGID_19_" y2="46.704" gradientUnits="userSpaceOnUse" x2="13.082" gradientTransform="matrix(.7423 -.509 .509 .7423 .3001 .4502)" y1="46.704" x1="12.02">
		<stop stop-color="#D6E6FF" offset="0"/>
		<stop stop-color="#94BDD4" offset="1"/>
	</linearGradient>
	<path d="m34.41 28.8c0.21 0.181 0.195 0.33-0.045 0.45-0.601 0.3-1.44 0.314-2.521 0.045-0.45-0.119-0.51-0.314-0.18-0.585l0.99-0.675c0.3-0.15 0.63-0.15 0.99 0 0.361 0.15 0.616 0.404 0.766 0.765z" fill="url(#SVGID_19_)"/>
		<linearGradient id="SVGID_20_" y2="59.883" gradientUnits="userSpaceOnUse" x2="42.79" gradientTransform="matrix(.7452 -.5046 .5046 .7452 .2993 .4498)" y1="59.883" x1="39.891">
		<stop stop-color="#D6E6FF" offset="0"/>
		<stop stop-color="#94BDD4" offset="1"/>
	</linearGradient>
	<path d="m60.285 22.14c0.779 0.091 1.335 0.315 1.664 0.675 0.391 0.45 0.96 0.811 1.711 1.08 0.299 0.121 0.629 0.436 0.989 0.945 0.329 0.48 0.42 0.78 0.27 0.899-0.21 0.121-0.734 0.286-1.575 0.496-0.899 0.21-1.664 0.33-2.294 0.359-0.931 0.091-1.605 0.136-2.025 0.136-0.75 0.06-1.306 0.015-1.665-0.136-0.39-0.18-0.659-0.465-0.81-0.855-0.121-0.359-0.09-0.689 0.089-0.989 0.15-0.24 0.331-0.66 0.541-1.261 0.27-0.539 0.63-0.914 1.08-1.125 0.569-0.239 1.244-0.314 2.025-0.224z" fill="url(#SVGID_20_)"/>
		<linearGradient id="SVGID_21_" y2="60.188" gradientUnits="userSpaceOnUse" x2="36.85" gradientTransform="matrix(.7416 -.5099 .5099 .7416 .2997 .4501)" y1="60.188" x1="34.909">
		<stop stop-color="#D6E6FF" offset="0"/>
		<stop stop-color="#94BDD4" offset="1"/>
	</linearGradient>
	<path d="m53.939 27.181c-0.09-0.181 0.045-0.36 0.405-0.541 0.51-0.27 0.87-0.524 1.08-0.765 0.27-0.329 0.615-0.495 1.035-0.495 0.119 0 0.524 0.075 1.215 0.226 0.6 0.119 1.185 0.479 1.755 1.08 0.569 0.6 0.66 0.975 0.27 1.125-0.66 0.3-1.065 0.479-1.215 0.539-0.54 0.15-1.14 0.226-1.8 0.226-0.689 0-1.305-0.165-1.846-0.495-0.449-0.27-0.748-0.571-0.899-0.9z" fill="url(#SVGID_21_)"/>
		<linearGradient id="SVGID_22_" y2="59.443" gradientUnits="userSpaceOnUse" x2="30.51" gradientTransform="matrix(.7384 -.5146 .5146 .7384 .3006 .4503)" y1="59.443" x1="29.504">
		<stop stop-color="#D6E6FF" offset="0"/>
		<stop stop-color="#94BDD4" offset="1"/>
	</linearGradient>
	<path d="m53.399 28.439c0.84 0.36 1.005 0.706 0.495 1.035-0.48 0.271-1.05 0.376-1.71 0.315-0.45-0.03-0.721-0.149-0.811-0.36-0.06-0.18-0.029-0.359 0.09-0.54 0.061-0.149 0.315-0.285 0.766-0.404 0.481-0.15 0.871-0.165 1.17-0.046z" fill="url(#SVGID_22_)"/>
		<linearGradient id="SVGID_23_" y2="55.375" gradientUnits="userSpaceOnUse" x2="35.047" gradientTransform="matrix(.7432 -.5076 .5076 .7432 .2998 .4499)" y1="55.375" x1="33.806">
		<stop stop-color="#D6E6FF" offset="0"/>
		<stop stop-color="#94BDD4" offset="1"/>
	</linearGradient>
	<path d="m55.064 23.895c0.449 0.811-0.359 1.216-2.43 1.216-0.87 0-0.931-0.375-0.18-1.125 0.329-0.33 0.779-0.525 1.35-0.585 0.631-0.061 1.05 0.104 1.26 0.494z" fill="url(#SVGID_23_)"/>
		<linearGradient id="SVGID_24_" y2="61.83" gradientUnits="userSpaceOnUse" x2="52.052" gradientTransform="matrix(.7456 -.5041 .5041 .7456 .2995 .4501)" y1="61.83" x1="49.909">
		<stop stop-color="#D6E6FF" offset="0"/>
		<stop stop-color="#94BDD4" offset="1"/>
	</linearGradient>
	<path d="m71.714 21.015c-0.24 0.391-0.6 0.751-1.079 1.08-0.99 0.69-2.086 0.96-3.285 0.811-1.229-0.181-1.561-0.66-0.99-1.44 0.21-0.3 0.931-0.96 2.16-1.979 0.57-0.45 1.064-0.511 1.485-0.18 0.269 0.238 0.84 0.807 1.709 1.708z" fill="url(#SVGID_24_)"/>
		<linearGradient id="SVGID_25_" y2="64.65" gradientUnits="userSpaceOnUse" x2="53.867" gradientTransform="matrix(.7421 -.5093 .5093 .7421 .3002 .4502)" y1="64.65" x1="52.32">
		<stop stop-color="#D6E6FF" offset="0"/>
		<stop stop-color="#94BDD4" offset="1"/>
	</linearGradient>
	<path d="m74.1 21.239c-0.061 0.301-0.21 0.601-0.45 0.9-0.48 0.63-1.14 0.961-1.98 0.99-0.87 0.03-1.305-0.18-1.305-0.63-0.03-0.18 0.105-0.615 0.405-1.305 0.15-0.391 0.525-0.54 1.125-0.45 0.209 0.001 0.944 0.166 2.205 0.495z" fill="url(#SVGID_25_)"/>
		<linearGradient id="SVGID_26_" y2="69.988" gradientUnits="userSpaceOnUse" x2="59.689" gradientTransform="matrix(.7451 -.5048 .5048 .7451 .3 .45)" y1="69.988" x1="57.816">
		<stop stop-color="#D6E6FF" offset="0"/>
		<stop stop-color="#94BDD4" offset="1"/>
	</linearGradient>
	<path d="m80.354 21.96c0.21 0.12 0.435 0.33 0.675 0.63 0.33 0.42 0.45 0.766 0.359 1.035-0.149 0.42-1.619 0.51-4.409 0.27-0.78-0.06-1.051-0.194-0.811-0.405 0.51-0.449 0.766-0.689 0.766-0.72 0.119-0.359 0.51-0.66 1.17-0.899 0.78-0.271 1.531-0.241 2.25 0.089z" fill="url(#SVGID_26_)"/>
		<linearGradient id="SVGID_27_" y2="62.211" gradientUnits="userSpaceOnUse" x2="58.791" gradientTransform="matrix(.7488 -.4992 .4992 .7488 .2999 .4501)" y1="62.211" x1="57.89">
		<stop stop-color="#D6E6FF" offset="0"/>
		<stop stop-color="#94BDD4" offset="1"/>
	</linearGradient>
	<path d="m73.694 18.136l-0.945-0.946 0.271-0.314c0.27-0.15 0.645-0.136 1.125 0.045 0.479 0.18 0.87 0.42 1.169 0.72 0.421 0.45 0.66 0.69 0.721 0.721 0.3 0.21 0.51 0.404 0.63 0.585 0.091 0.18 0.075 0.27-0.045 0.27-0.149 0-0.6-0.135-1.35-0.404-0.781-0.273-1.306-0.499-1.576-0.677z" fill="url(#SVGID_27_)"/>
		<linearGradient id="SVGID_28_" y2="65.113" gradientUnits="userSpaceOnUse" x2="58.872" gradientTransform="matrix(.7416 -.5099 .5099 .7416 .2997 .4501)" y1="65.113" x1="56.931">
		<stop stop-color="#D6E6FF" offset="0"/>
		<stop stop-color="#94BDD4" offset="1"/>
	</linearGradient>
	<path d="m74.188 20.25c-0.809-0.21-1.259-0.36-1.35-0.45-0.06-0.06 0.046-0.18 0.315-0.36 0.149-0.06 0.3-0.134 0.45-0.225 0.359-0.45 0.779-0.779 1.26-0.99 0.54-0.239 1.035-0.255 1.485-0.044 0.36 0.149 0.854 0.465 1.485 0.944 0.539 0.42 0.854 0.63 0.944 0.63-1.23 0.51-2.13 0.765-2.7 0.765-0.418 0-1.048-0.089-1.889-0.27z" fill="url(#SVGID_28_)"/>
		<linearGradient id="SVGID_29_" y2="66.967" gradientUnits="userSpaceOnUse" x2="61.554" gradientTransform="matrix(.7488 -.4992 .4992 .7488 .3001 .4501)" y1="66.967" x1="60.202">
		<stop stop-color="#D6E6FF" offset="0"/>
		<stop stop-color="#94BDD4" offset="1"/>
	</linearGradient>
	<path d="m79.813 19.439c0.961 0.66 1.291 1.11 0.991 1.351-0.271 0.18-1.351 0.21-3.241 0.09-0.569-0.029-0.765-0.165-0.584-0.405 0.09-0.149 0.27-0.345 0.54-0.585 0.18-0.21 0.465-0.39 0.854-0.54 0.541-0.21 1.022-0.18 1.44 0.089z" fill="url(#SVGID_29_)"/>
		<linearGradient id="SVGID_30_" y2="66.98" gradientUnits="userSpaceOnUse" x2="65.245" gradientTransform="matrix(.746 -.5035 .5035 .746 .2994 .4501)" y1="66.98" x1="64.038">
		<stop stop-color="#D6E6FF" offset="0"/>
		<stop stop-color="#94BDD4" offset="1"/>
	</linearGradient>
	<path d="m79.994 18.181c0.12-0.121 0.346-0.376 0.675-0.766 0.36-0.3 0.751-0.39 1.17-0.271 0.66 0.181 1.306 0.586 1.936 1.216-0.841 0.33-1.561 0.479-2.16 0.45-0.39-0.031-0.78-0.15-1.17-0.36l-0.451-0.269z" fill="url(#SVGID_30_)"/>
		<linearGradient id="SVGID_31_" y2="69.195" gradientUnits="userSpaceOnUse" x2="68.183" gradientTransform="matrix(.7533 -.4925 .4925 .7533 .2996 .4499)" y1="69.195" x1="67.406">
		<stop stop-color="#D6E6FF" offset="0"/>
		<stop stop-color="#94BDD4" offset="1"/>
	</linearGradient>
	<path d="m85.395 18.811c0.689 0.119 0.975 0.345 0.854 0.675-0.09 0.3-0.39 0.465-0.899 0.495-0.421 0.029-0.72-0.016-0.9-0.136-0.15-0.149-0.285-0.284-0.405-0.405-0.18-0.179-0.074-0.345 0.315-0.494 0.359-0.15 0.704-0.196 1.035-0.135z" fill="url(#SVGID_31_)"/>
		<linearGradient id="SVGID_32_" y2="73.584" gradientUnits="userSpaceOnUse" x2="64.042" gradientTransform="matrix(.74 -.5123 .5123 .74 .2999 .4499)" y1="73.584" x1="63.252">
		<stop stop-color="#D6E6FF" offset="0"/>
		<stop stop-color="#94BDD4" offset="1"/>
	</linearGradient>
	<path d="m84.899 21.645c1.439 0.751 1.604 1.11 0.495 1.08-0.66-0.029-1.17-0.089-1.53-0.18l-0.359-0.135 0.539-0.405c0.391-0.27 0.675-0.39 0.855-0.36z" fill="url(#SVGID_32_)"/>
		<linearGradient id="SVGID_33_" y2="74.567" gradientUnits="userSpaceOnUse" x2="68.754" gradientTransform="matrix(.74 -.5123 .5123 .74 .2999 .4499)" y1="74.567" x1="67.964">
		<stop stop-color="#D6E6FF" offset="0"/>
		<stop stop-color="#94BDD4" offset="1"/>
	</linearGradient>
	<path d="m88.994 19.98c0.33 0.09 0.615 0.284 0.855 0.584 0.239 0.271 0.255 0.405 0.044 0.405-0.689 0.15-1.335 0.181-1.934 0.091-0.421-0.031-0.421-0.24 0-0.63 0.42-0.36 0.766-0.509 1.035-0.45z" fill="url(#SVGID_33_)"/>
		<linearGradient id="SVGID_34_" y2="62.691" gradientUnits="userSpaceOnUse" x2="60.659" gradientTransform="matrix(.7436 -.507 .507 .7436 .3002 .4501)" y1="62.691" x1="59.993">
		<stop stop-color="#D6E6FF" offset="0"/>
		<stop stop-color="#94BDD4" offset="1"/>
	</linearGradient>
	<path d="m76.889 15.975c0.271 0.09 0.496 0.24 0.675 0.45 0.211 0.271 0.226 0.45 0.046 0.54-0.33 0.18-0.945 0.091-1.846-0.27-0.27-0.09-0.194-0.255 0.226-0.495 0.389-0.21 0.689-0.285 0.899-0.225z" fill="url(#SVGID_34_)"/>
		<linearGradient id="SVGID_35_" y2="66.125" gradientUnits="userSpaceOnUse" x2="49.514" gradientTransform="matrix(.7419 -.5096 .5096 .7419 .3005 .4501)" y1="66.125" x1="46.512">
		<stop stop-color="#D6E6FF" offset="0"/>
		<stop stop-color="#94BDD4" offset="1"/>
	</linearGradient>
	<path d="m71.624 23.806c1.351 1.439 1.785 2.294 1.306 2.564-0.45 0.21-1.275 0.435-2.476 0.675-1.35 0.27-2.399 0.391-3.149 0.36-0.69-0.03-1.38-0.225-2.07-0.585l-0.854-0.54 1.08-1.755c0.21-0.3 0.66-0.69 1.35-1.17 0.779-0.541 1.41-0.855 1.89-0.945 0.45-0.061 0.96 0.09 1.53 0.45 0.298 0.18 0.763 0.495 1.393 0.946z" fill="url(#SVGID_35_)"/>
		<linearGradient id="SVGID_36_" y2="70.754" gradientUnits="userSpaceOnUse" x2="53.929" gradientTransform="matrix(.7423 -.509 .509 .7423 .3001 .4502)" y1="70.754" x1="52.868">
		<stop stop-color="#D6E6FF" offset="0"/>
		<stop stop-color="#94BDD4" offset="1"/>
	</linearGradient>
	<path d="m75.899 25.335c0.96 0.211 1.35 0.48 1.17 0.81-0.181 0.24-0.569 0.405-1.17 0.495-0.811 0.091-1.395-0.03-1.755-0.359-0.181-0.15-0.061-0.375 0.36-0.675 0.45-0.301 0.915-0.391 1.395-0.271z" fill="url(#SVGID_36_)"/>
	<path d="m61.859 15.075c0.48 0.57 0.72 0.944 0.72 1.125 0 0.12-0.06 0.3-0.18 0.539-0.06 0.36-0.465 0.556-1.215 0.586-0.75 0.029-1.2-0.285-1.35-0.945-0.181-0.959-0.105-1.65 0.225-2.069 0.36-0.511 0.961-0.256 1.8 0.764z" fill="#89B3CF"/>
	<path d="m66.81 15.525c1.2 0.66 1.529 1.319 0.99 1.979-0.271 0.33-0.735 0.315-1.396-0.045-0.63-0.39-0.96-0.81-0.99-1.26-0.06-0.51 0-0.825 0.18-0.945 0.211-0.15 0.615-0.059 1.216 0.271z" fill="#89B3CF"/>
	<path d="m69.6 16.83c0.45 0.391 0.675 0.6 0.675 0.63 0.09 0.09 0.045 0.226-0.136 0.404-0.179 0.181-0.374 0.24-0.584 0.181-0.15-0.03-0.391-0.165-0.72-0.405-0.271-0.21-0.271-0.45 0-0.72 0.3-0.27 0.555-0.3 0.765-0.09z" fill="#89B3CF"/>
	<path d="m56.864 10.305c0.39 0.27 0.615 0.6 0.675 0.99 0.031 0.42-0.194 0.735-0.675 0.945-0.45 0.18-0.795 0.06-1.034-0.36-0.211-0.57-0.391-1.005-0.541-1.305-0.24-0.42-0.18-0.66 0.181-0.72 0.389-0.09 0.854 0.06 1.394 0.45z" fill="#89B3CF"/>
	<path d="m60.374 11.34c0.9 0.72 1.155 1.29 0.765 1.71-0.359 0.42-0.944 0.12-1.754-0.9-0.33-0.39-0.346-0.705-0.046-0.945 0.301-0.21 0.645-0.165 1.035 0.135z" fill="#89B3CF"/>
	<path d="m63.524 16.875c0.45 0.45 0.734 0.885 0.855 1.306 0.089 0.479-0.121 0.749-0.631 0.809-0.51 0.062-0.854-0.119-1.035-0.539-0.179-0.391-0.179-0.765 0-1.125 0.241-0.541 0.512-0.691 0.811-0.451z" fill="#89B3CF"/>
	<path d="m49.664 5.94c0.391 0.299 0.601 0.629 0.63 0.99 0.03 0.42-0.21 0.72-0.72 0.9-0.51 0.15-0.93-0.06-1.26-0.63-0.271-0.48-0.404-1.005-0.404-1.575 0-0.72 0.584-0.615 1.754 0.315z" fill="#89B3CF"/>
	<path d="m46.964 5.04c0.21 0.24 0.301 0.495 0.271 0.765-0.03 0.21-0.149 0.36-0.36 0.45-0.18 0.06-0.39-0.03-0.63-0.271-0.24-0.27-0.359-0.54-0.359-0.81s0.119-0.42 0.359-0.45c0.269-0.059 0.509 0.046 0.719 0.316z" fill="#89B3CF"/>
	<path d="m55.514 13.95c0.421 0.779 0.511 1.409 0.271 1.89-0.181 0.42-0.57 0.689-1.171 0.811-0.45 0.089-0.705-0.15-0.765-0.72-0.03-0.181 0-0.735 0.09-1.666 0.03-0.479 0.239-0.75 0.63-0.81 0.391-0.09 0.705 0.075 0.945 0.495z" fill="#89B3CF"/>
	<path d="m57.675 16.064c0.3 0.331 0.449 0.66 0.449 0.991 0 0.149-0.044 0.344-0.135 0.584-0.06 0.21-0.271 0.256-0.63 0.136-0.39-0.121-0.689-0.421-0.899-0.9-0.21-0.45-0.091-0.75 0.359-0.9 0.42-0.15 0.705-0.121 0.856 0.089z" fill="#89B3CF"/>
	<path d="m55.199 19.575c0.36 0.42 0.601 0.915 0.72 1.485 0.15 0.689 0.016 1.094-0.405 1.215-0.479 0.15-0.839 0.135-1.079-0.045-0.239-0.181-0.511-0.586-0.811-1.216-0.27-0.6-0.18-1.094 0.271-1.484 0.479-0.39 0.915-0.375 1.304 0.045z" fill="#89B3CF"/>
	<path d="m49.889 19.439c0.181-0.06 0.45 0.121 0.811 0.541 0.33 0.42 0.48 0.765 0.45 1.034-0.09 0.511-0.615 0.69-1.575 0.541-0.42-0.091-0.57-0.45-0.45-1.081 0.12-0.629 0.375-0.974 0.764-1.035z" fill="#89B3CF"/>
	<path d="m62.85 19.89c0.329 0.301 0.524 0.63 0.585 0.99 0.06 0.359-0.091 0.631-0.45 0.81-0.54 0.271-1.035-0.074-1.485-1.034-0.18-0.36-0.089-0.66 0.271-0.9 0.329-0.24 0.688-0.195 1.079 0.134z" fill="#89B3CF"/>
	<path d="m64.289 13.455c0.15 0.93-0.075 1.5-0.675 1.71-0.359 0.12-0.6 0-0.72-0.36-0.09-0.51-0.21-0.885-0.359-1.125-0.15-0.33 0.015-0.495 0.494-0.495 0.36 0.03 0.781 0.12 1.26 0.27z" fill="#89B3CF"/>
	<path d="m36.84 5.265c0.6-0.24 0.93-0.18 0.99 0.18 0.06 0.21 0 0.601-0.18 1.17-0.12 0.42-0.42 0.705-0.9 0.855-0.51 0.18-1.08 0.09-1.71-0.27-0.99-0.51-0.391-1.155 1.8-1.935z" fill="#fff"/>
	<path d="m34.365 8.19c0.39 0 0.6 0.18 0.63 0.54 0.06 0.36-0.06 0.629-0.36 0.81-0.51 0.36-0.9 0.24-1.169-0.36-0.331-0.66-0.031-0.99 0.899-0.99z" fill="#fff"/>
	<path d="m43.725 5.265c0.27 0.66 0 1.185-0.811 1.575-0.3 0.15-0.465 0.045-0.495-0.315-0.03-0.24-0.015-0.51 0.045-0.81 0.031-0.21 0.21-0.405 0.541-0.585 0.359-0.18 0.599-0.135 0.72 0.135z" fill="#fff"/>
	<path d="m40.35 7.74l0.855-0.27c0.09 0 0.135 0.135 0.135 0.405 0 0.63-0.285 0.885-0.855 0.765-0.24-0.03-0.375-0.18-0.405-0.45-0.031-0.24 0.06-0.39 0.27-0.45z" fill="#fff"/>
	<path d="m27.885 10.53c0.63-0.18 1.02-0.12 1.17 0.18 0.15 0.271 0.09 0.63-0.18 1.08-0.39 0.69-1.215 0.81-2.475 0.36-0.479-0.149-0.435-0.45 0.135-0.9 0.54-0.42 0.989-0.66 1.35-0.72z" fill="#fff"/>
	<path d="m31.125 10.08c0.72-0.3 1.035-0.18 0.945 0.36-0.089 0.54-0.36 0.945-0.81 1.215-0.629 0.39-1.125 0.33-1.485-0.18-0.12-0.15-0.06-0.36 0.18-0.63 0.27-0.3 0.659-0.555 1.17-0.765z" fill="#fff"/>
	<path d="m22.26 14.715c0.42-0.06 0.675 0.135 0.765 0.585 0.09 0.48-0.105 0.915-0.584 1.306-0.48 0.359-0.915 0.51-1.305 0.45-0.21-0.03-0.6-0.211-1.17-0.541-0.42-0.27-0.33-0.614 0.27-1.034 0.599-0.451 1.274-0.706 2.024-0.766z" fill="#fff"/>
	<path d="m24.6 14.175c0.45-0.121 0.735-0.03 0.855 0.27 0.12 0.301-0.045 0.616-0.495 0.945-0.39 0.301-0.675 0.436-0.854 0.405-0.21-0.09-0.391-0.149-0.54-0.181-0.24-0.06-0.24-0.27 0-0.629 0.239-0.42 0.583-0.69 1.034-0.81z" fill="#fff"/>
	<path d="m33.915 14.265c0.72-0.03 1.095 0.166 1.125 0.585 0.06 0.39-0.165 0.9-0.675 1.53-0.39 0.48-0.705 0.66-0.945 0.54-0.24-0.27-0.51-0.45-0.81-0.54-0.42-0.15-0.465-0.54-0.135-1.17 0.33-0.6 0.81-0.915 1.44-0.945z" fill="#fff"/>
	<path d="m39.09 14.85c0.27-0.03 0.54 0.09 0.81 0.36 0.21 0.271 0.285 0.51 0.225 0.721-0.12 0.299-0.675 0.374-1.665 0.225-0.42-0.091-0.555-0.315-0.405-0.675 0.15-0.361 0.494-0.571 1.035-0.631z" fill="#fff"/>
	<path d="m38.685 16.875c0.36 0.09 0.585 0.225 0.675 0.405 0.06 0.18-0.015 0.345-0.225 0.495-0.299 0.27-0.69 0.194-1.169-0.226-0.21-0.18-0.225-0.345-0.045-0.494 0.208-0.18 0.464-0.24 0.764-0.18z" fill="#fff"/>
	<path d="m31.35 19.306c1.05-0.391 1.605-0.136 1.665 0.765 0.03 0.84-0.225 1.409-0.765 1.71-0.36 0.21-0.69 0.21-0.99 0-0.18-0.15-0.404-0.436-0.675-0.855-0.18-0.3-0.18-0.615 0-0.944 0.15-0.333 0.405-0.557 0.765-0.676z" fill="#fff"/>
	<path d="m24.6 17.73c0.6-0.331 1.05-0.436 1.35-0.315 0.24 0.09 0.345 0.271 0.315 0.54-0.12 0.51-0.57 0.855-1.35 1.034-0.479 0.091-0.735-0.06-0.765-0.449-0.001-0.39 0.149-0.66 0.45-0.81z" fill="#fff"/>
	<path d="m42.96 20.475c0.81-0.029 1.14 0.15 0.99 0.54-0.121 0.24-0.391 0.511-0.811 0.811-0.21 0.18-0.389 0.225-0.54 0.135-0.15-0.12-0.27-0.21-0.36-0.271-0.179-0.09-0.194-0.3-0.045-0.629 0.151-0.361 0.406-0.556 0.766-0.586z" fill="#fff"/>
	<path d="m37.109 23.04c0.54 0.061 0.825 0.375 0.855 0.945 0.03 0.569-0.255 1.005-0.855 1.305-0.48 0.239-0.78 0.285-0.9 0.135-0.12-0.3-0.27-0.57-0.45-0.811-0.24-0.299-0.149-0.659 0.271-1.079 0.36-0.389 0.72-0.556 1.079-0.495z" fill="#fff"/>
	<path d="m42.689 25.29c0.18 0.09 0.331 0.271 0.45 0.54 0.15 0.3 0.15 0.569 0 0.81-0.179 0.24-0.33 0.301-0.45 0.181-0.24-0.211-0.495-0.421-0.765-0.631-0.36-0.3-0.39-0.555-0.089-0.765 0.269-0.239 0.555-0.284 0.854-0.135z" fill="#fff"/>
	<path d="m58.664 22.725c0.751-0.089 1.11 0.195 1.08 0.855 0 0.51-0.195 1.005-0.584 1.484-0.211 0.301-0.526 0.315-0.946 0.046-0.329-0.24-0.584-0.511-0.765-0.811-0.15-0.239-0.135-0.524 0.045-0.854 0.21-0.39 0.601-0.631 1.17-0.72z" fill="#fff"/>
	<path d="m7.5 19.53c0.36 0.24 0.45 0.435 0.27 0.584-0.18 0.181-0.419 0.181-0.72 0-0.27-0.149-0.3-0.314-0.09-0.494 0.21-0.149 0.39-0.181 0.54-0.09z" fill="#fff"/>
	<path d="m11.64 17.73c0.39-0.121 0.51 0.074 0.36 0.584-0.149 0.481-0.45 0.675-0.9 0.586-0.45-0.061-0.555-0.255-0.315-0.586 0.21-0.269 0.495-0.464 0.855-0.584z" fill="#fff"/>
	<path d="m13.44 21.465c0.24 0 0.315 0.091 0.225 0.271-0.12 0.18-0.345 0.27-0.675 0.27-0.36 0-0.435-0.09-0.225-0.27s0.435-0.271 0.675-0.271z" fill="#fff"/>
	<path d="m24.06 22.95c0.24 0.06 0.36 0.18 0.36 0.36 0.03 0.179-0.135 0.27-0.495 0.27-0.33 0-0.435-0.105-0.315-0.315 0.119-0.241 0.27-0.345 0.45-0.315z" fill="#fff"/>
	<path d="m26.984 23.265c0.36 0.061 0.601 0.225 0.72 0.496 0.15 0.27 0.09 0.51-0.18 0.72-0.24 0.149-0.465 0.149-0.675 0-0.27-0.24-0.525-0.465-0.765-0.675-0.48-0.451-0.179-0.631 0.9-0.541z" fill="#fff"/>
	<path d="m56.1 26.325c0.27 0 0.435 0.195 0.495 0.585 0.06 0.33 0.044 0.569-0.045 0.72-0.09 0.12-0.3 0.166-0.631 0.135-0.39-0.06-0.81-0.24-1.259-0.54-0.421-0.27-0.421-0.494 0-0.675 0.36-0.151 0.839-0.225 1.44-0.225z" fill="#fff"/>
	<path d="m66.539 24.255c0.33-0.12 0.675 0.045 1.035 0.495 0.36 0.391 0.51 0.765 0.45 1.125-0.03 0.3-0.346 0.495-0.945 0.585-0.54 0.061-1.02 0.016-1.44-0.135-0.389-0.12-0.465-0.45-0.225-0.99 0.24-0.57 0.615-0.931 1.125-1.08z" fill="#fff"/>
	<path d="m67.889 20.7c0.511 0 0.66 0.255 0.45 0.765-0.09 0.271-0.345 0.435-0.765 0.495-0.39 0.03-0.645-0.03-0.765-0.18s-0.046-0.375 0.226-0.675c0.27-0.27 0.554-0.405 0.854-0.405z" fill="#fff"/>
	<path d="m71.175 21.239c0.21-0.06 0.404-0.015 0.585 0.136 0.149 0.15 0.225 0.33 0.225 0.54 0 0.42-0.39 0.6-1.17 0.54-0.33-0.029-0.42-0.225-0.271-0.585 0.121-0.33 0.331-0.54 0.631-0.631z" fill="#fff"/>
	<path d="m77.699 22.5c0.27-0.03 0.465 0.075 0.585 0.314 0.12 0.24 0.105 0.42-0.045 0.541-0.12 0.09-0.359 0.119-0.72 0.09l-0.495-0.045c-0.03-0.121-0.015-0.255 0.045-0.405 0.09-0.3 0.301-0.465 0.63-0.495z" fill="#fff"/>
	<path d="m78.239 19.8c0.239-0.029 0.39 0.045 0.449 0.226 0.062 0.15 0 0.3-0.179 0.449-0.181 0.211-0.525 0.24-1.035 0.09-0.21-0.06-0.195-0.194 0.045-0.404 0.24-0.181 0.48-0.302 0.72-0.361z" fill="#fff"/>
	<path d="m74.549 18.675c0.271-0.18 0.48-0.029 0.631 0.45 0.149 0.45 0.134 0.75-0.045 0.9-0.12 0.12-0.271 0.104-0.45-0.045-0.24-0.21-0.405-0.36-0.496-0.45-0.299-0.21-0.179-0.495 0.36-0.855z" fill="#fff"/>
	<path d="m74.188 17.325c0.211 0.479 0.195 0.705-0.044 0.675-0.271-0.06-0.48-0.225-0.631-0.495-0.09-0.21-0.015-0.315 0.226-0.315 0.21-0.03 0.361 0.015 0.449 0.135z" fill="#fff"/>
	<path d="m81.164 17.415c0.271 0.15 0.42 0.3 0.45 0.449 0.03 0.091 0 0.24-0.09 0.45-0.06 0.15-0.15 0.21-0.27 0.181-0.211-0.09-0.391-0.181-0.541-0.271-0.21-0.12-0.24-0.314-0.09-0.585 0.151-0.269 0.331-0.344 0.541-0.224z" fill="#fff"/>
	<path d="m34.59 26.955c0.42 0 0.66 0.03 0.72 0.09 0.06 0.03 0.12 0.165 0.18 0.405 0.12 0.27 0.15 0.42 0.09 0.45-0.12 0.06-0.525 0.015-1.215-0.136-0.66-0.149-0.87-0.329-0.63-0.54 0.24-0.179 0.525-0.269 0.855-0.269z" fill="#fff"/>
	<path d="m32.834 28.306c0.36 0.029 0.405 0.134 0.135 0.314-0.24 0.21-0.524 0.255-0.854 0.135s-0.36-0.239-0.09-0.36c0.24-0.12 0.51-0.15 0.809-0.089z" fill="#fff"/>
</g>
</svg>
