<?xml version="1.0" encoding="UTF-8" standalone="no"?>
<svg width="1e3" xmlns="http://www.w3.org/2000/svg" height="1e3">
 <g fill-rule="evenodd">
  <path d="m177 818l-1-2h6l4 1q3 1 4 2 0 1 1 1v1h-1q-2 0-2 1-1 2 0 2t2 2q2 3 2 4v1h-1q-1 0-1-1t-3-2h-3q0-1-1-1v-1q-1 0-1 0 0-1-1-1v-1q-1 0-1 0 0-1-1-1v-1q-1 0-1 0v-1q0-1-1-3z" stroke="#413c2d" fill="#413c2d"/>
  <path d="m573 454h1l2 4q2 4 3 10 1 7 1 8 2 2 2 18 2 16 3 28 1 11 1 32 0 22-2 24t-8 4q-6 1-7 2-2 2-19 5-18 4-19 6-1 3-9 5-7 2-20 4t-18 0-12-2q-8-1-11-1-4 1-7 5-2 4-6 8-5 4-12 6-6 2-12 3h-6v-1h1t0-6q-1-6-2-8-2-2-9-2-6 0-7-3-1-2-4-3t-5-6q-1-4-3-4-2-1-2-4-1-3-2-4h-1v-1h-1v-1h-1v-4l2-1h6v1l1 1 1 1v1h1v1l6 2q6 4 9 6 2 2 4 3 2 0 3 1 1 0 1 2v2h3l1-3q2-3 5-5t5-5q3-3 12-6 8-2 8-4 0-1 4-1t8 2 4 3l1-2q1-2 2-3h2v-1q1 0 1-2 2-2 2-7 2-4 0-5 0-1-2-6v-5l-1-1v-1h1v1h1v1h1v1h1v1h1v1h1v1l6 5q5 5 6 6 0 1 4 3 3 1 6 1 2-1 5-3 3-4 8-5 6-2 9-6 3-3 7-5 3 0 4 0h1l1 1h1v-1l-1-2t-1-4q-1-3-2-8t1-6q1 0 4-4 3-2 7-10 5-7 6-8 2-1 3-9 1-7 4-8t5-6q3-5 3-11l2-5h-1v-1h-3q-2 0-4 1h-1v-1h1v-1h1v-1h2l3-1q2-1 3-5t3-4 2 1 1 1zm-102 120q1 0 1 0-1 0-1 0z" stroke="#d1d1cc" fill="#d1d1cc"/>
  <path d="m201 828l-2-3 6 4q6 3 12 5 6 0 10 4 4 2 11 5 8 3 10 4 2 2 3 3v1l-1 1v1h-6q-5-1-20-3l-16-2h-1q-1 0-1-1v-1q0-1-2-3l-1-2h1q1-1 4-1h4v-1h-1v-1h-1v-1h-1v-1h-1q-1 0-3-2l-3-2t0-1q0 0-1-3z" stroke="#231f1a" fill="#231f1a"/>
  <path d="m618 637v2h-1v1h-1v1h-1v1h-1l2 1h2l-3 3q-3 3-5 8 0 5-3 8-3 2-3 3h-1v1q-1 0-1 0v1t-1 1q-1 0-1 0v1t-1 1q-1 0-1 0v2l-1 2-1 1v1h-1v-4l1-3v-2h1q0-1 0-2 1-1 1-4 1-3 2-5h2v-1h-1q0-1 1-1h1v-1h-1q0-1-2 0h-3v-1h1l1-1 1-1 9-6q9-7 9-7zm-14 14q1-1 2-2 1 0 0 2 0 1-1 2-1 0-1-2z" stroke="#39352d" fill="#39352d"/>
  <path d="m682 612h2q2 1 1 4 0 2-1 3l-1 1h1v1h-1v1h2l-1 1q0 1 0 1-1 0-1 1h-1v1h-2q-1 0-8 4l-7 4-1 1q-1 1-2 1t-1 1h-1q0 1-2 2t-10 3q-7 2-7 3t-3 1h-2v-2h-2v-1h-1v1h-1l-1-1h-1v-1h1v-1h1v-1h1v-1h1q0-1 6-7l5-6h2v-1h1v-1h1l7-4q6-2 12-3 5-1 8-2t4-2h1q1 0 1-1z" stroke="#4f4d47" fill="#4f4d47"/>
  <path d="m382 513l2-11 2 1q2 1 2 1v1h1v1h1v1h1v1h1v1h1v1h1l2 3q1 3 5 4t3 7q0 6 1 7t2 5q0 3-3 4-2 1-4 13 0 12-1 17v5h-12q0-1-1-1h-2l-1-1-1-1h-3v-1h-1v-1h-2q-1 0-12-2h-10v-1h-1v-1h-1v-4h1v-1h1v-1l1 1 1 1h9l2-1q2-1 3-1 0-1 0-2-1 0-1-1 1-1 1-2 1-1 2-5 2-4 3-6t3-11 4-20z" stroke="#aeab9e" fill="#aeab9e"/>
  <path d="m277 439l-1 2q-2 2-2 3v2h1v1h1v1h4l-2 2q-2 2-1 2v1h-4q-4 1-9-1h-4l-4-1h-3q0-1 5-2 4-1 8-2 3 0 3-1 1-1-1-2-2 0-2-1v-1h4q4 0 5-2 1-1 2-1z" stroke="#b5b2ad" fill="#b5b2ad"/>
  <path d="m192 442l4-1 3 1q3 2 3 3t3 2 4 3q2 2 3 3v2q-1 2-2 2h-1v-1l-1-1v1l-1 1-1 1v5h1v1h5q4 1 4 5 1 4 2 4t2 5q0 4 1 4 0 0 2 1l2 1h1v5h-1v1h-5q-2 0-5 0l-3-1v1q0 2-1 4v1h3q0 1-4 3t-8 2q-5 2-6 3 0 1-3 1t-3 0q-1 1-7-2l-6-2-1-1v-3q0-2 2-4 0-2 0-8l-1-7v-5q-1-4 0-8 1-3 2-3t1-1 4-3q4-3 5-5t0-2q-1-1-1-4 0-2 4-4zm17 50h1-1z" stroke="#676251" fill="#676251"/>
  <path d="m194 431h2l2 1q2 0 2 1 1 1 5 3 4 0 8 2t7 3q2 1 3 1h1v2h1l1 1 1 1h1v1h-6q-5 1-6 3 0 3-2 3h-2q-1-1-3-3-1-2-4-3t-3-2-3-3l-3-1v-1t1-2q0-1-1-1t-1-1-3-1h-2q0-1-1-1t-1-1v-1h2q1 0 4-1z" stroke="#858172" fill="#858172"/>
  <path d="m244 604v-1l1 1q1 2-1 2-3 1-2 2 0 2 2 2 1 0 1 2v1l-5 2q-4 2-4 4-1 1-3 1t-3 2q0 3-1 3v-1h-3v1l-1 1-2 2q-3 2-3 4v1l-1 1-1 1v1h-2v-1l-1-1v-4l-1-1v-1l1-1 1-1v-1q0-1 1-2 0-1 2-1 2-1 3-3 0-2 7-5 7-2 7-3t2-3q2-1 3-2 2 0 3-2z" stroke="#736e62" fill="#736e62"/>
  <path d="m122 541l2-2 3 1q3 1 3 2v1h1v1h1v1l-3 1q-2 0-2 1-1 1-1 3v1h1l1 1h2q1 0 1 1t2 0 3-1 2 2q1 3 4 4 2 2 3 2h1v1h1v1h4v1h-1l-2 1-1 3q-1 4-2 5v1h-2v-1l1-1v-4q0-3 0-3t-10-3q-11-3-17-3l-6-2h1v-4l2-1 1-1q1 0 2 0 2 0 3-4 0-3 2-5z" stroke="#bcbbb6" fill="#bcbbb6"/>
  <path d="m995 460h1v1q0 1-8 8t-18 7l-11 1v-1h2l1-1 1-1h2l1-1 1-1 13-6q14-6 15-6z" stroke="#5b574a" fill="#5b574a"/>
  <path d="m408 486l13 1q13 1 16 3 3 3 3 4 0 0 0 1h1q0 1 1 1 0 0 0 1h1v1q1 1 1 3v2h-1v1h-1v4h-1l-1-1q-1-1-4-1-2 0-4 0-3 0-6 0t-6 3q-4 2-12 1-9 0-12-2h-2l-1-1-1-1h-1v-1h-1v-1h-1v-6l1-5v-1l9-2q9-4 9-4z" stroke="#dddeda" fill="#dddeda"/>
  <path d="m178 724l2-7 1 1q1 0 1 3 1 3 2 2 2-1 2-1l-1 5q-1 5-2 7v2l-1 2q-2 3-2 3v1h-1q-1 0-3-1l-2-2v-3q0-4 2-5 0-1 2-7z" stroke="#9f9f97" fill="#9f9f97"/>
  <path d="m147 555v-1h3v2h9q7 0 8 1 0 1 6 3t9 3l2 1h1v1h1v1q0 1-1 1-1 1-3 1h-1v1h1v1h1v1h-1q-1-1-8-1-7-2-12-2l-5-1q0-1-3-2l-2-2v-1h-1l-1-1q-1-1-2-2v-4h-1z" stroke="#d3d2ce" fill="#d3d2ce"/>
  <path d="m144 766h3l-1 1q0 1 2 3 2 3 3 4h-2v-1h-1v-1h-3q-2 0 3 6 6 4 7 5 1 0 1 1 0 2 0 8-2 7-3 8-1 2-2 4 0 2 3 2h3v1h-1v1h-1v1h-1v1h-1v1h-1v1h-1v1h-1v1h-2q-3 0-8-2h-8q-1 0-4-2l-2-1q0-1-8-4l-9-4q0-1-3-2t-9-2l-6-1v-6l1-1v-1l1-1 1-1v6h3v-1l1-1h2q2 0 4-1t2-2 1-1 1-1 5-4 9-4q3-1 3-2 1-1 3-2 4-1 8-3 4-1 4-2t1-1q1-1 3-1z" stroke="#262118" fill="#262118"/>
  <path d="m297 487h3l3 1q3 1 5 5t3 6v2l-2 13q-1 13-1 18 0 6-2 8-2 1-2 5-1 5 0 5 0 1 0 5-1 5-5 11t-6 13q-3 7-3 9-1 2-2 2t-1 1h-1v1h-13q-1-1-1-1-1-1-8-3-8-2-14-3t-30-5q-23-4-30-7l-7-2v-1h-1v-1h-1v-1h1q2 0 3-1 1 0 1-1v-1h-1v-1h-1l-2-1q-3-1-9-3t-6-3q-1-1-8-1h-9v-2h-3v1h1v4q1 1 2 2h2v2h-2v-1h-3v-1h-1v-1h-1q-1 0-3-2-3-1-4-4-1-2-2-2t-3 1-2 0-1-1h-2l-1-1h-1v-1q0-2 1-3 0-1 2-1l3-1v-1h-1v-1h-1v-1q0-1-3-2l-3-1-1-1v-3h1v2h1l1-1v-4h3q3-1 4-3 1-1 5-3 4-1 4-1 2 0 3 2 2 3 5 3 4 0 6 0 1 2 3 2h2v-2h2v2l-1 1v2h1v-1h1v-1h1v-1h-1v-2q0-1-1-2-1-2 1-4 3-2 2-2-2-2-2-3v-2h1v-1h1v-5h2v1h1v1h1v2l-1 1q-1 2 4 3t6 3q2 2 7 2 4 1 4 2t2 1q1 0 2-2 0-1 2-2h6l4-1h1q1 0 1-2t4-2q5 0 11 0 6-1 7 0 1 2 4 2 4 0 5-3t6-7 8-4h3l10-2q10-2 12-3 2 0 4-2 1-3 5-3 3 0 7-4 3-4 3-5z" stroke="#cfcfca" fill="#cfcfca"/>
  <path d="m137 825v-2h3q0 1 0 1h1q1 1 1 1v1h5l-3 1q-2 1-2 2t0 1v1h1v1l1 1q2 2 2 3h-2q-1 0-4-2l-3-2v-1q-1 0-1-1t-2-2l-2-1h2q3-1 3-2z" stroke="#5b574d" fill="#5b574d"/>
  <path d="m716 594h8v3h-1l-1 1h-1l-1 1q-1 1-9 5-7 4-4 5l4 1t-3 2q-4 2-14 7l-11 6v-2h1l1-1h-2v-1h1v-1h-1l1-1q1-1 1-3 1-3-2-3h-2v-2h1l1-1h1l4-2q4-3 12-7t12-5q4-2 4-2z" stroke="#4b463e" fill="#4b463e"/>
  <path d="m280 448h1l4-1h5q0 1 2 1h6l1 1q1 1 2 4l1 3v1l1 1v1h-5q-5-1-7-1-2-2-8-3l-6-1v-2q-1 0 1-2l2-2z" stroke="#aaa7a1" fill="#aaa7a1"/>
  <path d="m89 796l2-5v5l6 1q6 1 9 2t3 2-9 1l-8 1t-1 3v3l-2-1q-2 0-3 1 0 1-1 1v-2q1-1 1-4 0-4 3-8z" stroke="#838075" fill="#838075"/>
  <path d="m380 574h6q1 0 1 1h-3l-2 1v4h1v1h1v1h1q1 1 2 4 0 3 2 4 2 0 3 4 2 5 5 6t4 3q1 3 7 3 7 0 9 2 1 2 2 8 0 6 0 6h-1v2q0 1-3 3t-3 6 1 9q2 4 7 8t6 5l2 1h9-7q-8 0-11-2l-3-3v-1h-1l-1-1-1-1h-1v-1l-1 2-1 2v1h2v2h-2v-1l-2-3q-2-2-6-2-3 0-6 5-4 5-4 25t-2 24q0 3 0 5v3h10q11 2 13 2t3 1h1v1h2l1 1 1 1 6 1q6 1 9 5 4 4 6 8 2 3 2 4v2h-1v1q-1 0-2 1-1 2-4 4t-7 3q-5 1-18 1-12-2-18 0-6 0-40 2-35 0-41-3t-25-4q-18-1-20-2-2-2-4-4t-3-5-3-3q-3-1-4-2v-1l-1-2v-2h1v-1l1-1h1v-3l1-1v-1h11q11-1 16-2 4-1 4-1-1-1-1-2 0-2 7-5 6-3 6-5 0-1 4-3 4-1 6-4 1-3 3-4t5-5q2-4 14-5 11-1 20-2 8-1 14-5 6-2 9-7 3-4 5-10l2-6v-9q0-2 0-5t2-8 2-15q0-11-4-14-4-4-4-8 0-5-2-8l-2-3h1v-1h1q1-2 4-2z" stroke="#e6e6e3" fill="#e6e6e3"/>
  <path d="m398 483h8v2h1v1h1t-9 4l-9 2v1l-1 5v6h-1t-2-1l-2-1v-1q0-1-2-5l-2-3v-5l1-1v-1h2l3-2q3 0 12-1z" stroke="#b6b3a9" fill="#b6b3a9"/>
  <path d="m906 528h1l-1 1v1h3l1 1 1 1t-37 14l-38 14-1 1-1 1h-2v-2h2v-1h1v-1h-3v-1l1-1v-1h1q1-1 2-1h1v-1q1-1 1-2t0-4v-2l2-1q2 0 3-2t5-1q5 0 5-1t4-2q4 0 5-1 0-1 4-3 4 0 6-2 3-2 7-2 3 0 4 2t10 0 11-3q1-1 2-1z" stroke="#363026" fill="#363026"/>
  <path d="m290 440h7v1h1v1h1v1h-1l-1 2q-2 1-3 2l-1 1h-1q-2 0-2-1h-1v-1q-1 0-1 0 0-1 0-3l1-3h1z" stroke="#e0e0dc" fill="#e0e0dc"/>
  <path d="m566 686t0 1h1v6q1 6 1 9v4l-1 1v1q-1 0-1 0v1t-1 1q-1 2-3 1t-4-13l-2-11 3-4q2-5 4-1t3 4z" stroke="#e2e2de" fill="#e2e2de"/>
  <path d="m539 471h2v1q-1 0-1 1-1 1-7 3l-6 3v-1h1l4-4q5-2 7-3z" stroke="#b9b7b1" fill="#b9b7b1"/>
  <path d="m452 832h4t0 1h1v1h-1v2h-1q-1 0-3 1h-4q-1 0-1 1v1q-1 0-3 1-3 0-3-1-1-1 0-3l1-1 2-1q3-2 8-2z" stroke="#302a1d" fill="#302a1d"/>
  <path d="m1e3 494v6h-1q-1 0-17 6l-16 6t0-2q1-1 0-2l-2-1h1v-1h1v-2l5-2q5-2 11-6 6-2 12-3 5-1 5 0 1 1 1 1z" stroke="#342e23" fill="#342e23"/>
  <path d="m204 648h1v2q0 2-2 4-3 2-4 5t-7 9q-5 6-6 6h-1v2q-1 0-1-1t-2-1h-1v-1h1v-7h1t8-8l8-8h1q1 0 2-1 0-1 2-1z" stroke="#716b5f" fill="#716b5f"/>
  <path d="m233 446v3h-1q-1-1-2-1l-2-1v-1h-1l-1-1-1-1h-1v-2h-1q-1 0-3-1-3-1-7-3t-8-2q-4-2-5-3 0-1-2-1l-2-1h3q3 1 17 3 14 3 15 8 1 4 2 4z" stroke="#a5a29c" fill="#a5a29c"/>
  <path d="m443 764h5l1 1 1 1 3 1q3 1 5 13 2 11 1 20-1 8-1 10t-1 2h-1l-2 1-1 1h1t0 1h1v1q1 1 1 1 0 1 0 1h1v1h1v2h1v1h1l1 2q1 1 2 1v1h1v1h-1l-1-1h-3v-1l-1-1v-1h-1v-1h-2q-1 0-2-1t-6-3q-6-2-9-3-2-1-3 3l-1 4h-1l-1 1h-1v-1l1-1v-1l1-4q1-4 1-5t1-7 1-8q2-1 2-12t0-14l2-3v-1h2v-2h1z" stroke="#c2bfb7" fill="#c2bfb7"/>
  <path d="m250 497h2v1h-1v1h1v1h1v1h-1l1 1q0 2 2 2 1 1 1 2h-3q-3 0-8 4t-6 7-5 3q-5 0-6-1t-6-1-10 0q-4 0-4 2t-1 2h-1l-4 1h-4v-1h5v-1l1-1v-2q0-3 7-4 6-1 6-2t5-2q4 0 3-1-1 0-1-1t1-3l1-2h1v-1h1v-1h1v-1h3v-1h3q3-1 5 1 3 0 5-1t5-2z" stroke="#b0ada7" fill="#b0ada7"/>
  <path d="m223 628l2-2h3l6 7q6 6 6 8 1 1 3 2 3 1 3 5 0 3 2 5 2 3 4 4t4 4q1 3 4 6 4 2 6 4 2 3 6 3 4 2 4 3t0 1v1h1v1h2v-1h1v-1h-1q-1 0-1-2 0-1 5-2 4 0 5-2l2-1q1-1 1-1l1 1q1 1 2 1h5q4 0 7-1 2-1 2 0t8 0q7-1 10-3 2-2 4-1 3 1 2 1 0 0 4 0 3 0 11-1 7-1 10-2 2-1 5-1t7-4q3-3 5-6 2-2 3-3 1 0 1-1 0-2 1-3l1-1v-2h1v-1h1v-3 7l-2 6q-2 6-5 10-3 5-9 7-6 4-14 5-9 1-20 2-12 1-14 5-3 4-5 5t-3 4q-2 3-6 4-4 2-4 3 0 2-6 5-7 3-7 5 0 1 1 2 0 0-4 1-5 1-16 2h-11v1l-1 1v3h-1l-1 1t-1 1h-1v1h-1v1h-1v3h-1v-2l1-2v-5q0-3 0-5-1-1-12-2h-14q-2-1-4-2-1-1-5-3-4 0-6-7l-2-6h1q0-1 0-1v-1q0-1 1-5 1-3-1-4l-2-2t-2-1h-3v-1l1-1v-1t2-1 2-3q0-3 2-4 2-2 2-6t2-10q2-7 1-8v-2q1-1 2-2l1-2q1 0 1-1h1q0-1 0-1 1 0 1-1h1v-1q0-2 3-4zm67 45t1 0q0 1-1 1 0 0 0-1z" stroke="#c6c4c0" fill="#c6c4c0"/>
  <path d="m556 633l2 1 1 12q1 11 2 12 1 0 1 8v9h1v1h3t1 0h1v1q0 1-1 1t-1 4q0 3 1 4v1h-1q-1 0-3-4-2-5-4 0l-3 4 2 11q2 12 4 13t3-1q0-2 1-2h1v2q-1 0-1 3v3l1 1 1 1v1h1v1h1v3l1 1 1 1v1h2v-1h1v-1h1v-1h1l-2 5q-1 4-2 6l-1 1v7h2l1-1 1-1h1v-1h1v-1h1l-1 3q-2 3-2 5v3l-2 1q-2 2-2 7v5h-4v-1h-1v-1h-1v-2q0-3-2-4-2 0-4 0-1 0-2-1 0-1-3-2t-4 1-5 2q-3 1-3 0t-3-1h-3v-1q-1-1-1-2 0-2-2-2-3 0-3-2 1-2 1-5t-3-3q-3-1-3-2t-4-3q-4-3-4-4 0-2-2-2-2-1-1-1 1-1-1-2-2-2-3-3-1-2 0-3 0-2 2-3t1-8q0-6 4-6t6-5q1-4 4-4 2-1 3-6 1-4 3-4h2v-1h1v-1h1l1-1h1v-2h-1v-1h-1l-1 1-1 1h-1t-1 2q-2 0-4-2l-2-3h-1v-1h-2v-1h-1v-2h-1v-1h-1v-3h1v-1h3l2-1q2-1 4-1 1-2 5-1t5-1q0-1 2-2 2 0 2-1t1-1 1-3q0-2-1-3-1-2 1-3 3-1 3-5-1-5 1-8 2-4 4-3z" stroke="#cecdc9" fill="#cecdc9"/>
  <path d="m455 822h1l-2 1-1 1h-2v1h1v3q1 2 2 2t2 1h1v2h-1l-1-1h-4q-4 0-7 2l-2 1v-1t2-1q0-1-3-1-4 0-5-2-2 0-2-2l-1-1h-4v2l-1 2v2h-1v-3l1-4v-1h1v-1h1t0-1h2q0-1 0-1 1 0 1-1l1-3q2-4 4-3 3 1 9 3 5 2 6 3t2 1z" stroke="#292316" fill="#292316"/>
  <path d="m534 802h-1v1q0 1-5 2l-5 1v1h-1v1h-1v1h-1v1h-1l-1 1-1 1h-2q-2 0-19 8-16 6-24 7h-8v-1h-1v-1q-1 0-2-1l-1-2h-1v-1h-1v-2h-1v-1l-1-1v-2h-1v-1h3l2-2q2-2 3-4t13-9q13-7 22-7 9-2 14-1 4 1 6 2t5 1 3 1 2 1q1 0 1 1t3 1q3-1 2 1 0 2 0 2 0 1 0 1z" stroke="#e7e6e3" fill="#e7e6e3"/>
  <path d="m292 252v3h1v1h-2v1h-1v1l-1 1v1h-2v-1l-1-1v-8q0-6 4-12 4-7 5-22 1-14 5-23t6-17 4-10q2-1 2 0 0 2 1 2t2 14q1 15-3 24-2 9-3 10-1 2-3 2-1 0-1 6-1 6-3 8-4 1-4 6-1 4-2 9 0 5-2 5-1 0-1-1-1-1-1 1z" stroke="#e0e0de" fill="#e0e0de"/>
  <path d="m604 422v2q0 2-6 8-6 7-11 10l-5 3v1h-4l-1 1-1 1h-2v-4h1v-1h1v-1h1v-1h1v-1l2-2q2-2 2-5t5-3q5-1 5-3 1-2 4-4 4-1 4-5 1-3 3-2 1 0 1 2t0 4z" stroke="#afaea9" fill="#afaea9"/>
  <path d="m238 863h5l13 1q13 2 18 2h39v1h-47l2 2q2 2 2 2v1h-17v1h-4q-4-1-19-3l-16-4h-7v-1l13-1q13 0 18-1z" stroke="#807c75" fill="#807c75"/>
  <path d="m756 604q-1 0-7 3t-35 17q-28 14-44 23t-30 20-24 22q-11 11-19 24-7 13-13 27l-6 15v1l-1 1v1h-1v2h-2v-8h1v-1q1 0 1-1v-4q0-2 2-5l1-3 1-1v-2q0-2 6-15 6-12 11-20t7-10 2-3 9-9l8-8h1t0-1q1-1 1-1h1t0-1q1-1 1-1h1t0-1q1-1 1-1h1t0-1l16-10q17-11 18-11t1-1l9-4q8-5 8-5h3l34-14q34-14 35-14 2 0 2 0z" stroke="#292722" fill="#292722"/>
  <path d="m165 413l1-1 2 1 1 1h1v1l3 2q2 2 3 7 0 4 4 5 3 1 3 1 1 0 1 0v1h-1q-1-1-5-1t-5 1-3 0q-3-1-3 1v1h-2v-1h-1v-7l-1-2v-5q1-2 1-3v-1l1-1z" stroke="#acaba5" fill="#acaba5"/>
  <path d="m130 423v-1h2l1 1h1v1q0 2 4 4 4 3 6 5 2 3 6 3 4 2 4 2h1v-1h1v1h3v-1h1v-1l1-1q1-1 2-3l1-3v3h1v10q-1 8 0 9l1 1v6h-1l-1 8q-2 8 0 8 1 0 1 8 1 9 1 10v10q0 7 1 8v1h1v1h-1q-1 1-1 2v2h-1v1h-1v2q0 1 2 3 1 0-2 2-2 2-1 4 1 1 1 2v2h1v1h-1v1h-1v1h-1v-2l1-1v-2h-2v2h-2q-2 0-3-2-2 0-6 0-3 0-5-3-1-2-3-2 0 0-4 1-4 2-5 3-1 2-4 3h-3v5l-1 1-1 1-1-1 1-1v-2h-1v-3q1-4 1-4t-2-1q-3-1-2-5t2-4q2 0 1-3t-1-5-2-3q0-1 0-3 2-2 2-5 2-3-2-6t-5-3q-1 1-1 0h-1v-1q1-1 4-25 3-25 5-26 2-2 2-6 0-5 2-6h1v-1h1v-1h1v-1h1z" stroke="#cfceca" fill="#cfceca"/>
  <path d="m642 622h1l-1 1v1h4v1h-1v1l-5 6q-6 6-6 7h-1v1h-1v1h-1v1h-1v1h-1q-1-1-5-1h-3l-1 1h-4l-2-1h1v-1h1v-1h1v-1h1v-2l1-1 11-6q11-8 12-8z" stroke="#322e24" fill="#322e24"/>
  <path d="m268 869l-2-2h47v1h1l-2 1-1 1h6l-1 1-2 1h-41l1 1q0 1 1 2v1h-1q-2 0-8-2h-7l-3-1h-3v-1h17v-1t-2-2z" stroke="#a29e98" fill="#a29e98"/>
  <path d="m174 370h3v1h1v5q0 5 1 6 1 0 1 3v3l-1 2-1 1v2h-1v1h-1l-1 1-1 1h-4v-1l-1-5v-6q-1-1 0-6l1-5 1-1q1-1 3-2z" stroke="#b1b0aa" fill="#b1b0aa"/>
  <path d="m465 838h3v2h-1l2 2q2 0 1 1-2 1-2 1h-2q-1 0-9 2t-15 4q-8 2-14 2l-6 1v-3l-1-1h-1v-1h5l9-2q10-2 13-3l3-1h4v-1l5-1q5-2 6-2z" stroke="#d8d6d0" fill="#d8d6d0"/>
  <path d="m163 658h4l1 2q2 3 2 4v1h1q1-1 1-1 1 0 1-2 0 0 1-1l2-1v1l2 3q0 2 1 3v1h3v5h-1v1h1q2 0 2 1t1 1h1v1l1 1v3h-1v4h-1l-1 1h-4l-4-1h-6q-1-1-1-1-1 0-8-5l-8-5h-1l-2-1-1-1h4l1-1q2 0 2-1t3-6l2-4v-1h1v-1h1z" stroke="#6c6758" fill="#6c6758"/>
  <path d="m390 313l1-1 5 2q5 0 6 1t2 1h2l38 6q38 6 42 6h3t1 3q2 3-2 3-5 1-5 2t-24 9l-24 8v1l-1 1v3h-1v1h1v3h1l2 3q2 3 7 5t5 3q1 0 1 1v10q-2 10-2 16t-1 6q-1 1-1 4v4h-1v1h-1v1h-1v1h-1v2h-2v-3h-1v-1h-1v-1l-1-1q-1-1-3-11-2-9-6-11-3-3-6-5-2-3-8-7-5-3-8-7-4-4-6-4t-6-6l-4-7v-5l-1 2-1 1v1q0 1-1 1v1h-1v2h-2v-2l1-1 1-1v-4q0-1 1-7t1-18l1-12h1z" stroke="#aaa697" fill="#aaa697"/>
  <path d="m661 636h1l-1 2q-1 1-1 2v1h5q0 1-1 1t-17 10-16 11q-1 1-4 4l-4 3v-1q1-1 2-2l1-1v-1t2-2l2-1v-1l1-2v-2h-3l-2-1h-1q-1 0-3 2l-3 2h-1v2h-2v-2h1v-1h1v-1h1v-1h1v-1h1v-1h1q0-1 1-2t1-2q1-1 4-4l4-3h1v-1h1v1h2v2h2q3 0 3-1t7-3q8-2 10-4t3-2z" stroke="#858787" fill="#858787"/>
  <path d="m222 447h6l2 1q1 0 2 1h1l9 1q8 0 10 1h4l4 1h4q5 2 9 1h4v1l6 1q6 1 8 3 2 0 7 1h5l5 1q5 0 8 2 2 2 2 2h1v1h1v1h1l-3 4q-2 4-3 6l-1 1v2l-1 1q-1 0-1 2-2 2-6 3l-4 1h-2v1h-12q-8 1-13 1-5 2-13 4l-7 4h-2l-1 1h-2q-3 1-5 2t-5 1q-2-2-5-1h-3v-1h-4q-5 0-9-2h-4v-1h-4v-2h-1l-1-1h1v-1h1v-1h4q3 0 5 0h5v-1h1v-5h-1l-2-1q-2-1-2-1-1 0-1-4-1-5-2-5t-2-4q0-4-4-5h-5v-1h-1v-5l1-1 1-1v-1l1 1v1h1q1 0 2-2v-2h2q2 0 2-3 1-2 6-3z" stroke="#7a7564" fill="#7a7564"/>
  <path d="m722 582h1q-1 1-1 1v5h2l-1 1-1 1q-1 0-1 1h-1q0 1 0 1h-1q-1 0-1 1l-1 1h-1t-4 2q-4 1-12 5t-12 7l-4 2h-1l-1 1q0 1 0 1-1 0-1 1h-1q-1 1-4 2t-8 2q-6 1-12 3l-7 4h-1v1h-1v1h-2v-1h1v-1h-4v-1l1-1 1-1 1-1h1v-1h1v-1l20-10q20-10 37-18t18-8z" stroke="#322d22" fill="#322d22"/>
  <path d="m680 626h1l-1 1v1h-1v1h-1v1l-1 1v1h5t-8 5l-9 4h-5v-1q0-1 1-2v-1q1 0 1-1 1 0 2-1l1-1 7-4q7-4 8-4z" stroke="#b2afa9" fill="#b2afa9"/>
  <path d="m598 326h2v1l2 3q2 4 3 16t3 14q0 3 0 20 0 18 0 28-2 11-2 13-2 2-2 2v-1q0-2 0-4t-1-2q-2-1-3 2 0 4-4 5-3 2-4 4 0 2-5 3-5 0-5 3t-2 5l-2 2v1h-1v1h-1v1h-1v1h-1v4h2l1-1 1-1h2l-3 3q-3 3-3 4v1h-1q-1 0-1-1t-2-1-3 4-3 5l-3 1h-2v1h-1v1h-1v1h-1q0 1-2 2t-7 3l-6 1h-2q-2 1-7 3l-4 4h-1v1h-3q-1 1-6 3l-4 2-3 4q-3 4-3 4t-1 1-7 1q-7 0-18-1-10-1-14-2-5-1-9-1l-4-2h-5v1h-1v1h-1v4l2 2q1 2 1 2h1v2l1 2v1h-1v-1h-1v-1h-1v-1h-1v-1h-1v-1h-1l-2-1h-2v-1q-1 0-1 0 0-1-1-1v-1q-1 0-1 0 0-1-3-4-3-2-16-3l-13-1h-1v-1h-1v-2h1l1-1h1l1-1 1-1q1 0 3-4 2-5 9-9 7-3 8-8t3-7 2-8q0-5 3-15l2-10h1v-2h1v-1h1v-1h1v-1h1v-4q0-3 1-4 1 0 1-6t2-16v-10h2v-1l1-1v-2h2v2l1 1v1h1q1-1 1 0v2h1v1l1 1v1l3 3q3 2 4 2 2 0 5 1t6 2q4 1 8 2t7 0 9-1 10-4q4-3 5-5 1-1 8-5t7-7q1-3 4-4 2-1 4-7 0-5 0-7-2-2-2-3v-1h1l1 1h3q1 0 1 0v-1h1q1-1 1-1h5q5 0 5 2v3h1v1h2v-1h1v-3q2-3 6-3 4-1 12-3 9-2 12-5 2-3 4-4 0-1 1-2v-1l1-1q1-1 2-1z" stroke="#cdccc7" fill="#cdccc7"/>
  <path d="m155 834l-1-2 4 1q3 1 4 2v1h5-2q-2 1 0 3 2 3 3 3 2 0 6 1h6l3 1h10l2 1 2 1h-12l-1 1-1 1h1q1 0 2 1l2 1h-3q-3 0-4-1t-9-1q-9-2-10-2-2-1-6-3l-5-1-1-1h-1v-1h-1v-1h-1v-1h-1l2-1h4q2-1 3-1t0-2z" stroke="#95928a" fill="#95928a"/>
  <path d="m489 328l8 1q8 1 11 3 4 2 4 2h1v1h1v2h1v1h-1q-1 0-2 2-2 0-2 2 1 1 0 1l-2 1h2v4q-1 0-3 1t-17 5q-15 6-22 10t-8 8l-1 4h-1v-2q0-1-1 0h-1v-1l-1-1v-2h-2v2l-1 1v1h-2q0-1-1-1 0-1-5-3t-7-5l-2-3h-1v-3h-1v-1h1v-3l1-1v-1l24-8q24-8 24-9t5-2q4 0 2-3-1-3-1-3z" stroke="#c0beb2" fill="#c0beb2"/>
  <path d="m191 709h1v5q0 4-2 11 0 7-2 10t-2 3q0-1-1-2t-1 0h-1v-2q1-2 2-7l1-5v-1q0-1 1-4l1-3v-3h1q1 0 1-1t1-1z" stroke="#c8c7c2" fill="#c8c7c2"/>
  <path d="m183 431h2q1 1 2 1h1v1q0 1 1 1t1 1h-5q-5 1-6 3t0 3q0 1-3 2-4 1-5 5-1 5-2 5v1h-1v2l-1 2v1h-1v-1h-2v-2h2v-4l-1-1q-1-1 0-9v-9h2v-1q0-2 3-1 2 1 3 0t5-1 5 1z" stroke="#a09e96" fill="#a09e96"/>
  <path d="m998 459h2v35t-1-1q0-1-5 0-6 1-12 3-6 4-11 6l-5 2v1h-2q-1 1-12 3-10 4-24 11l-15 7-2 1-2 1h-3q-1 0-2 1-2 1-11 3t-10 0-4-2q-4 0-7 2-2 2-6 2-4 2-4 3-1 1-5 1-4 1-4 2t-5 1q-4-1-5 1t-3 2l-2 1h-2q-2 1-11 1l-9 2v-1l1-1v-1h-3l-2-1h1v-1h1v-1l2-1 1-1 70-31q70-31 71-32h1l11-1q10 0 17-7t8-7v-1q1 0 1-1 1 0 2-1z" stroke="#2f281d" fill="#2f281d"/>
  <path d="m185 435h7q3 0 3 1t1 1 1 1q-1 2-1 2v1l-4 1q-4 2-4 4 0 3 1 4 1 0 0 2t-5 5q-4 2-4 3t-1 1-2 3q-1 4 0 8v5h-1v-1h-1v-1h-1v-3h-1l-1-1-1-1h-1l-1-1q-1-1-1-5l-1-5v-1l1-2v-2h1v-1q1 0 2-5 1-4 4-5 2-1 3-4 2-3 7-4z" stroke="#858173" fill="#858173"/>
  <path d="m92 803h2l3 1 3 1q4 1 6 2 3 1 9 1h6l3 1h2l2 1q3 2 4 2h3v1h1v1h1l3 2q2 2 4 2h1l1 1 1 1h1v4h-7l-1-1h-4q0-1-3-1l-3-2h-4q-4 0-8-2l-3-1-4 1q-3 0-4 2t-3 2h-1q-1-1-1-1v-1t-1 0q-1-1-1-1-1-1-3-2l-1-1h-1v-1h-1v-1h-1v-1h-1v-1q0-1-1-2v-4q1-3 1-3z" stroke="#e6e6e2" fill="#e6e6e2"/>
  <path d="m282 859l2-2h12l2 1q1 2 10 2 8 1 8 3-1 2 0 2 1 1 1 1h-38l1-1q1-1 0-2-1-2 2-4z" stroke="#282520" fill="#282520"/>
  <path d="m574 750l2-1v1q0 1-1 1v1h-1v8h2v-2h1l-1 6q0 5-2 6 0 1-1 9t-5 11q-4 4-7 8-4 4-5 4 0 0 0 1h-1q-1 0-1-1t0-4q-2-2-3-1-2 1-3 2h-2q1-1 3-2 1-2 2-4 0-3 1-7 0-5-3-8-4-3-4-4-1-1 1-2l2-1h1v-1h-4q-1 0-7 0h-6v-1h-1v-1h-1v-7h1v-1h-1v-1h1v-1h2l-1-1-1-1h1l2-1q1-1 2-1h1v-1h3q3 0 3 1t3 0q4 0 5-2t4-1 3 2q1 1 2 1 2 0 4 0 2 1 2 4v2h1v1h1v1h4v-5q0-5 2-7zm-17 48q1-1 1 0t-1 0q-1 0 0 0z" stroke="#bbbab6" fill="#bbbab6"/>
  <path d="m813 542h1v1h-1v1h-1l2 1h3v1l-1 1v1l9-2q9 0 11-1h2v2q0 3 0 4t-1 2v1h-1q-1 0-2 1h-1v1l-1 1v1h3v1h-1v1q-1 0-1 1h-1q0 1 0 1h-1q-1 0-45 17l-44 17h-1q-1 0-1-2 1-1-4 0t-5 0q-1-2-5-2h-6v-2h2l1-1 1-1h-2v-5t1-1l45-20q44-20 45-20z" stroke="#2d271c" fill="#2d271c"/>
  <path d="m552 619v-1h3v1l1 1v6q2 6 2 7v1l-2-1q-2-1-4 3-2 3-1 8 0 4-3 5-2 1-1 3 1 1 1 3 0 3-1 3t-1 1-2 1q-2 1-2 2-1 2-5 1t-5 1q-2 0-4 1l-2 1h-3v1h-1v3h1v1h1v2h1v1h2v1h1l2 3q2 2 4 2 1-2 1-2h1l1-1 1-1h1v1h1v2h-1l-1 1h-1v1h-1v1h-2q-2 0-3 4-1 5-3 6-3 0-4 4-2 5-6 5t-4 6q1 7-1 8t-2 3q-1 1 0 3 1 1 4 4 3 2 3 4 0 1 4 4 4 2 4 3t3 2q3 0 3 3t-1 5q0 2 3 2 2 0 2 2 0 1 1 2v2h-1q-1 0-2 1l-2 1h-1l1 1 1 1h-2v1h-1v1h1v1h-1v7h1v1h1v1h6q6 0 7 0h4v1h-1l-2 1q-2 1-1 2 0 1 4 4 3 3 3 8-1 4-1 7-1 2-2 4-2 1-3 2h-3q0-1-3-1-2 0-3 2l-1 2h-1l-1 1h-1v-1h1t0-1q0 0 0-2 1-2-2-1-3 0-3-1t-1-1q-2 0-2-1t-3-1-5-1-6-2q-5-1-14 1-9 0-22 7-12 7-13 9t-3 4l-2 2h-2v2l1 1v1h-2v-1l-1-1v-2h-1l1-1 2-1h1q1 0 1-2t1-10q1-9-1-20-2-12-5-13l-3-1-1-1-1-1h-6v2h-2v1l-2 3q0 3 0 14t-2 12q0 2-1 8t-1 7-1 5v5h-1v-7l-1-1-1-1v1h-1v1h-1v1q0 1-5 3-5 3-9 5-5 1-6 3-2 2-14 2t-19 2-36 6-35 5-13 2-5 2q1 1 0 1t-6 2q-4 0-6 3-2 2-6 2-4 1-4-1-1-2-2-2h-4v-1l-1-1q-1-1-1-2-2-2-7-6-5-5-9-8-4-4-4-8 0-5-4-8-3-2-5-7-1-5-3-7t-7-8l-5-5v-3l1-1v-1h2v-2l-1-1v-2h2l2 3q3 2 6 3t4 0l1-1h1v-1l1-1q1-1 1-4 2-2 2-6 0-3 1-6l1-2t1-1v-3q-1-1-1-2 0-2 3-4 2-2 2-3t1-1 1-2q-1-3 0-7l1-4v-2q0-2 3-6l2-4h1v-3h1v-1h1v-2h2v6q1 1 4 2 2 0 3 3t3 5 4 4q2 1 20 2 19 1 25 4t41 3q34-2 40-2 6-2 18 0 13 0 18-1 4-1 7-3t4-4q1-1 2-1v-1h1v-2q0-1-2-4-2-4-6-8-3-4-9-5l-6-1-1-1-1-1h-2v-1h3l3-1h1v-3h-1v-1q-1 0-1 0 0-1 0-2t0-2q1 0 0-3-2-2-2-16t-4-23l-4-8v-1h-1v-1h-1v-1l1-2 1-2v1h1l1 1 1 1h1v1l3 3q3 2 11 2h7l5 1q6 1 11 3t11 1 10-3 13-3 17-5 10-6q3-2 8-4 6-2 14-7t10-8 3-3v-1h1v-1h1v-1h1zm-38 107t1 0q0 0-1 0zm-281 60h3v1h-1v1h-5v-1q0-1 3-1z" stroke="#d8d7d3" fill="#d8d7d3"/>
  <path d="m140 602l1-11q1 0 1 2v2l1 1 1 2v1h1v1h1l2-1h1v3q-1 4-1 6 0 1 2 3t1 4q0 3-1 3h-1v2l-1 2-1-1-1-1v-2h-2l-1-1h-1v-1q0-2-2 0l-2 1v-1q0-2 2-14z" stroke="#7d7b6f" fill="#7d7b6f"/>
  <path d="m188 710v4l-1 3q-1 3-1 4v1t-2 1q-1 1-2-2 0-3-1-3l-1-1v-5h1v-1h1v-1h1t1-1v-1h1v-1h1v-1h2q1-1 1 2-1 2-1 2z" stroke="#838175" fill="#838175"/>
  <path d="m429 829v-2h4l1 1q0 2 2 2 1 2 5 2 3 0 3 1-2 1-2 1v1l-1 1q-1 2 0 3 0 1 3 1 2 0 2-1 1-1 2-2h1v1h-1v1q0 1 1 1l3 1h2v1h-4l-3 1q-3 1-13 3l-9 2h-5v1h-12v-2h2l1 1h1l1-1 1-1h1q1 0 7-7l5-6h1v-2l1-2z" stroke="#24211b" fill="#24211b"/>
  <path d="m540 340h4l1 1h1v3h-1q-1 0-1 1-1 1-1 1h-1q-2 0-2 3 0 2 0 7-2 6-4 7-3 1-4 4 0 3-7 7t-8 5q-1 2-5 5-4 4-10 4t-9 1-7 0-8-2q-3-1-6-2t-5-1q-1 0-4-2l-3-3v-1l-1-1v-1l1-4q1-4 8-8t22-10q15-4 17-5t3-1l11-2q11-1 15-3 3-3 4-3z" stroke="#e9e8e6" fill="#e9e8e6"/>
  <path d="m183 307h1v1h1v1h1v2h1l1 1 3 2q3 2 3 3 2 1 2 5 0 3 1 4 0 2 2 2 3 1 5 5t5 7q4 2 13 5 10 3 12 5 3 2 4 2t1 4q0 3 4 5 4 1 15 1t18-4q6-2 10-2 5 0 10 4 4 2 10 4 5 2 8 4t10 2 10-1q2-1 2-2t14-6q13-5 22-4 8 0 9-1t1-1v-1h1v-1h1v-1h1l1-1v3l-1 2v1h-1v1l-5 34q-5 34-5 38-2 3-2 6v3l-3 5q-3 6-1 8 0 2 0 4-2 2-2 2v1h-6q-5 1-8 1t-10-3-9-5-7-2q-6 0-13 1t-9-1q-1-2-4-2h-7l1-1q1-1 3-2l1-2h1v-1h-1v-1h-1v-1h-8l-1 3q0 2 0 3 0 0 1 0v1h-4l-4 1h-5v-1h-1v-1h-1v-2q0-1 2-3l1-2v-1l1-1v-3h-2v-1h-1v1h-1v1h-1q0 1-11 1-10 0-10 1t-4 2-6 3l-2 4h-5l-1 1h-1v-1q-1 0-2-4-1-5-15-8-14-2-17-3h-5q-3 1-4 1h-3q-1 0-2-1h-1v-1t-1 0q0 0-3-1-4-1-4-5-1-5-3-7l-3-2v-1h-1l-1-1-2-1-1 1-1 1v1q0 1-1 3v3h-1v-9l1-1q1-1 3-11l2-11v-4h1v5l1 5v1h4l1-1 1-1h1v-1h1v-2l1-1 1-2v-3q0-3-1-3-1-1-1-6v-5h-1v-1h-3q-2 1-3 2l-1 1v-3l1-2 1-2v-1l1-3v-2l3 1q2 1 4-1 2 0 2 0 1 0 2 0h1v1h1v-3q0-3 0-4t-2-4l-1-4q1-1 1-4t2-3q3-1 4-3t0-2-2-3q0-2-3-7-3-6-5-6h-2v-2h1v-1h1q0-1 1-2l1-1v-4h1v-1z" stroke="#dcdcd8" fill="#dcdcd8"/>
  <path d="m0 500v-500h1e3v459h-2q-1 1-2 1t-1 1h-1q-1 1-14 6l-13 5-1 1-1 1h-2l-1 1-1 1h-2v1h-1q-1 1-71 32l-70 31-1 1-2 1h-1q-1 0-45 20l-45 20h-1q-1 0-18 8t-37 18l-20 10v1h-1v1h-1l-1 1-1 1h-1q-1 0-12 8l-11 6-1 1t-9 7l-9 6-1 1-1 1h-1v1q-1 0-14 11l-13 10v1h-1v1h-2v1h-1l-1-1h-2v-1h-1v-9q0-8-1-8-1-1-2-12l-1-12v-1q0-1-2-7v-6l-1-1v-1h-3v1h-1v1h-1v1h-1v1q-1 0-3 3t-10 8-14 7q-5 2-8 4-2 2-10 6t-17 5-13 3-10 3-11-1-11-3l-5-1h-9l-2-1q-1-1-6-5t-7-8q-1-5-1-9t3-6 3-3v-1h6q6-1 12-3 7-2 12-6 4-4 6-8 3-4 7-5 3 0 11 1 7 0 12 2t18 0 20-4q8-2 9-5 1-2 19-6 17-3 19-5 1-1 7-2 6-2 8-4t2-24q0-21-1-32-1-12-3-28 0-16-2-18 0-1-1-8-1-6-3-10l-2-4v-1q0-1 3-4l3-3h2v-1l5-3q5-3 11-10 6-6 6-8v-1t2-2q0-2 2-13 0-10 0-28 0-17 0-20-2-2-3-14t-3-16l-2-3v-1h-2q-1 0-2 1l-1 1h-1t-6 0h-7v-1h-1v-1l-1-2-1-1v-2l1-1q0-1 2-2 2 0 1-1 0-1 2-3 1 0 2-1h1v-2h-1l-1-1h-1l-1-1-1-1h-1q-1 0-11-3-9-3-9-5 1-3 1-12t3-10q3-2 3-8 0-5 3-15t5-19v-10h1v-1h1v-2h-1l-1-1h-1v1h-1v1h-1v1h-1v1q0 1-4 2-4 0-4 2 0 1-6 3-6 1-9 3-3 1-2 3l1 2h-1v1h-5v-2h2q1 0 1-2v-2h-3q-1 0-10 0t-10 2q0 2-1 2t-3 0q-3 0-12-2-10-2-12-3t-7-2-11 1q-5 2-10 0-5 0-11-2-6 0-8-3l-2-3h-5v6q0 6 0 8v3h-1v-1h-2q-2 0-6 1l-3 1-1 1-1 1v1l-1 1-1 2v1h1v1h1l2-1q1-1 2 4 2 5 1 12t-1 8-1 1-5 9-4 13q-1 5 0 6 2 0 2 1t-2 2 0 3 2 2v1l1 1v2h-19q-1 0-2-1t-6-1l-5-2-1 1h-1l-1 12q0 12-1 18t-1 7v1l-1 1h-1v1h-1v1h-1v1t-1 1-9 1q-9-1-22 4-14 5-14 6t-2 2q-3 1-10 1t-10-2-8-4q-6-2-10-4-5-4-10-4-4 0-10 2-7 4-18 4t-15-1q-4-2-4-5 0-4-1-4t-4-2q-2-2-12-5-9-3-13-5-3-3-5-7t-5-5q-2 0-3-4 0-3-1-4-1 0-1-1t0-2-3-3l-3-2-1-1h-1v-2h-1v-1h-1v-1h-1v1h-1v4l-1 1q-1 1-1 2l-1 1v1q-1 0-1 1l-2 10q-2 10-2 13v3t-1 8v10l-1 3v1l-1 2-1 2v3l-1 5q-1 5 0 6v1h-1v4l-2 11q-2 10-3 11l-1 1v9h1v2l1 2v4l-1 3q-1 2-2 3l-1 1v1h-1v1h-3v-1h-1v1h-1t-4-2q-4 0-6-3-2-2-6-5-4-2-4-4v-1h-1l-1-1h-2v1h-1v1h-1v1h-1v1h-1q-2 1-2 6 0 4-2 6-2 1-5 26-3 24-4 25v1l-1 9q0 9-2 19-2 9-2 10 0 2 0 12v10h-1v1h1v3h1v1h1v1h1l6 2q6 0 17 3 10 3 10 3t0 3v5t-1 0v1l-1 7q0 6-1 8v3l-1 11q-2 12-2 14v1l-1 3q-1 3-1 18 0 16 0 18v3l1 1q1 1 1 1 0 1 0 1h1l2 2q3 2 3 3v1h1v1h1v2h1v1h2l1 1 2 1h1l8 5q7 5 8 5 0 0 1 1h1v1h6v1h1v1l4 2q5 3 5 8-1 4-3 6-2 3-2 4v1h-1l-1 1v7l-2 7q-2 6-2 7-2 1-2 5v4q0 2-2 2h-1l-2 1q-1 1-2 1v1l-19 7q-20 8-31 15-12 7-14 9-2 1-2 2t-2 3q-3 2-3 2v1h-1v1h-1v1l-1 1-1 1v1l-1 1v1l-2 5q-3 4-3 8 0 3-1 4v4q1 1 1 3v2l3 5q2 4 13 10t30 13q20 7 36 10t18 4h1v1h1l2 1 2 1 6 1q7 1 8 2h1v1h7l16 4q15 2 19 3h7l3 1h7q6 2 8 2h37q36 0 41 0h5l8-1q8-1 13-2h4l18-3q17-4 18-4h1l20-6q19-5 20-6 0-1 4-2 5 0 5-1t-2-2q-1-1 0-1t3-1h5q2 0 2-1 1-2 9-4t9-2q2-2 2-2h3l1-1 1-1 7-2q8-4 8-4 1 0 1-1h1l2-1h1v-1h1v-1h2q2 0 12-8 11-6 15-11l4-4h1q0-1 0-1 1 0 5-4 3-4 7-8 4-3 5-11t1-9q2-1 2-6l1-6v-1l1-1v-1l6-15q6-14 13-27 8-13 19-24 10-11 24-22t30-20 44-23q29-14 35-17t7-3l13-5q13-5 34-13t21-8q-1 0 84-33 84-33 86-33h1l1-1 1-1h3v490h-1e3v-500zm292-248v3h1v1h-2v1h-1v1l-1 1v1h-2v-1l-1-1v-8q0-6 4-12 4-7 5-22 1-14 5-23t6-17 4-10q2-1 2 0 0 2 1 2t2 14q1 15-3 24-2 9-3 10-1 2-3 2-1 0-1 6-1 6-3 8-4 1-4 6-1 4-2 9 0 5-2 5-1 0-1-1-1-1-1 1z" stroke="#fdfdfd" fill="#fdfdfd"/>
  <path d="m430 812l1 1 1 1v8t-1 0v1h-1q0 1 0 1h-1v1h-1v1l-1 4v3l-5 6q-6 7-7 7h-1l-1 1-1 1h-1l-1-1h-2v2h13l1 1v3h-2q-1 1-2 1 0 0-6 2h-6l-1 1h-6q-5 1-11 1l-7 1h-13q-14-1-43-1l-29-1h-19q-7 1-19 1h-11l1-1v-1h1v-1h-1v-1h1v-1h1v-1l1-1v-1h1v1l1 1q1 0 1 2v1h2l2-1h4v-3h-1l-1-1h2q1 0 2 2 0 2 4 1 4 0 6-2 2-3 6-3 5-2 6-2t0-1q-2-1 5-2t13-2 35-5 36-6 19-2 14-2q1-2 6-3 4-2 9-5 5-2 5-3v-1h1v-1h1v-1z" stroke="#eaeae7" fill="#eaeae7"/>
  <path d="m89 808l2 1v1q1 1 1 2v1h1v1h1v1h1v1h1l1 1q2 1 3 2 0 1 0 1h1t1 1q0 1 0 1h1l2 1q2 1 2 2t5 3 6 2h1t1 1h1v1h1l11 4q11 4 13 4h2t0 1h2l1 1 5 1q4 2 6 3 1 0 10 2 8 0 9 1t4 1h3l13 3q13 3 13 3h1v-1h1v1h5v1h-1v3h-3l-5-1q-5-1-12-1h-10l-2 1h-2q-2-1-18-4t-36-10q-19-7-30-13t-13-10l-3-5v-2q0-2-1-3v-2q1 0 1-1 1-1 3-1z" stroke="#1e1d19" fill="#1e1d19"/>
  <path d="m158 808h3q3 1 5 3 2 3 2 3t0 1h1l3 6q4 6 4 6 0 1 0 1l1 2 1 1v2h-1v1h-5q-2 0-3 0h-1l-3 1h-3q-1-1-4-2l-4-1q-1 0-2-2 0-2-3-3l-2-1h-5l-1-1h-1v-2h1l1 1h6v-4h-1l-1-1-1-1h-1q-2 0-4-2l-3-2h-1v-1h-1v-1h-3 8q5 2 8 2h2v-1h1v-1h1v-1h2q0-1 0-1h2v-1h1v-1h1z" stroke="#ada9a1" fill="#ada9a1"/>
  <path d="m360 459h4l-2 3q-2 4-1 10t1 4q1-1 2 0 2 0 2 1v7q-2 1-2 0-1-2-2 1 0 2 2 9 2 6 3 7t-1 9q0 8-1 10-1 1-1 6v4h-1v-2l-1-2-2-1h-2v-2l-1-1q-1-2-1-12 0-11-1-22 0-11-1-11-1-1-1-3-1-3-1-5l-1-1h-1q-1 0-9 1t-14 3-7 5l-1 3h-6l1-1v-2l1-1q1-2 3-6l3-4h-1v-1h-1v-1h-1t-2-2q-3-2-8-2l-5-1v-1l-1-1v-1l-1-3q-1-3-2-4l-1-1h2q3 0 4 2 2 2 9 1t13-1q5 0 7 2t9 5 10 3 8-1z" stroke="#aaa89e" fill="#aaa89e"/>
  <path d="m220 857h3q2 1 8 1h6l1 2q1 2 3 2h2v1h-5q-5 1-18 1l-13 1h-1q-1-1-8-2l-6-1-2-1-2-1h-1v-1h1l2-1h10q7 0 12 1l5 1h3v-3z" stroke="#56554e" fill="#56554e"/>
  <path d="m190 821h1l4 1q3 2 4 2v1l2 3q1 3 1 3 0 1 0 1l3 2q2 2 3 2h1v1h1v1h1v1h1v1h-4q-3 0-4 1h-1l1 2q2 2 2 3v1h-2l-1-1h-6l-2-1-2-1h-10l-3-1h-3v-1h6v-1h-1v-1h-1v-1l3-1q3 0 7-1l4-1h1v-2h-1v-1h-1v-1t-1 0l-1-1v-1t-1 0v-1q-1-1-1-3-1-2-2-2t0-2q0-1 2-1z" stroke="#353024" fill="#353024"/>
  <path d="m522 824t-1 1l-1 1h-2l-1 1q-1 0-1 1v1h1v1q0 1-8 4l-8 2-1 1-1 1h-5l1-1 1-1h1v-1h1v-1l1-1 1-1t-1-1l-1-1t-1-1l-1-1 11-6q11-6 12-6h1l4-1q5-1 1 3t-4 5q1 0 1 1z" stroke="#959088" fill="#959088"/>
  <path d="m369 444l3-5-1 9q-1 9-1 10-1 0-2 1h-2v-1t2-2q0-2 0-4-2-2 1-8z" stroke="#bcbdb8" fill="#bcbdb8"/>
  <path d="m111 818l4-1-3 1q-2 0-2 1 1 1 1 2h1v1h4q3 0 5 1h2v1q1 1 0 1l-3-1q-3 0-3 2l1 1v1t1 0v1q1 0 1 1v1h-1q-1-1-7-3-5-2-5-3t-3-2q-2-1-3-2l-1-2h1q1 1 3 1 2 2 3 0t4-2z" stroke="#928e87" fill="#928e87"/>
  <path d="m620 643l1-1h3q4 0 5 1h2l1 1-4 3q-3 3-4 4 0 1-1 2t-1 2h-1v1h-1v1h-1v1h-1v1l-1 1v1q-1 0-1 1 0 0-4 2l-3 2h-5v1h-1v1h-1v1h-1v1h-1l-1 1h-1v-2h1v-1h1v-1h1v-1h2v-1h1q0-1 3-3 3-3 3-8 2-5 5-8l3-3h2z" stroke="#646159" fill="#646159"/>
  <path d="m195 701l3 1q2 2 6 8 2 6 3 8v2l-1 4q0 3-1 6v2l1 9q0 9-1 12-1 4-1 11t2 10q1 2 1 3h1v1l1 1 1 1v1h1v1h1v1l1 1v1l-1 1v3l5 5q5 6 7 8t3 7q2 5 5 7 4 3 4 8 0 4 4 8 4 3 9 8 5 4 7 6 0 1 1 2l1 1v1h2l1 1h1v3h-4l-2 1h-2v-1q0-2-1-2l-1-1v-1h-1q-1-1-3-3-2-1-10-4-7-3-11-5-4-4-10-4-6-2-12-5l-6-4v-1q-1 0-4-2l-4-1v-1q-1 0-1-1-1-1-4-2l-4-1t-6-6q-6-5-8-12l-2-7v-1q0-1 2-10 0-8 1-15t2-9l1-2 2-1q1-1 3-2 2 0 3 2 0 2 2 2h1v-1l1-1v-1t0-4q2-5 2-8v-2t2-3 2-7q0-5 2-8 0-4 0-7l-1-3h1t0-1v-3q0-2 1-2v-1h1q0-1 0-1 1 0 1-1z" stroke="#eeeeeb" fill="#eeeeeb"/>
  <path d="m625 656h1l2 1h3v2l-1 2v2t-1 1q-1 0-1 0v1t-1 1q-1 0-1 0v1t-1 1q-1 0-1 0v1t-1 1l-8 8q-9 8-9 9t-2 3-7 10-11 20q-6 13-6 15v2l-1 1h-1v1h-1v1h-1l-1 1-1 1h-2v-7l1-1q1-2 2-6l2-5v-1q1-1 2-4 1-4 9-18l8-13q1-1 7-11l6-10 3-2q4-2 4-2 1 0 1-1h1q0-1 0-1h1l3-2q2-2 3-2z" stroke="#ececea" fill="#ececea"/>
  <path d="m154 568l3-1 5 1q5 0 12 2 7 0 8 1h1l7 2q7 3 30 7 24 4 30 5t14 3q7 2 8 3 0 1 0 1h1l1 1q2 1 2 1l1 1 1 1h-14q-6 0-10 2-4 0-7 3l-3 2v2q-1 1-3 1-1 1-2 4-1 2-9 4-7 2-8 5-1 2-3 3-2 0-2 1-1 1-1 2v1l-1 1-1 1v1l1 1v2l-4 2q-3 2-5 5t-2 3v1h-1v1h-1l-1 2q-1 3-2 4l-8 8q-8 8-8 8h-1v2h-3v-1q-1-1-1-3l-2-3v-1l-2 1q-1 1-1 1 0 2-1 2 0 0-1 1h-1v-1q0-1-2-4l-1-2h-5v1h-1v1l-2 4q-3 5-3 6t-2 1l-1 1h-6v-1h-1v-2h-1v-1h-1v-1q0-1-3-3l-2-2q-1-1-1-1v-4h1v-1h1l1-1q1-1 2-3t3-10q2-7 3-10t-1-4q-1 0 0-3v-3l1-2v-2h1q1 0 1-3 1-2-1-4t-2-3q0-2 1-6v-4l-1-1v-1l1-2q0-1 3-1 2-1 3-3t-1-2q-1 0-1-8t-1-10q0-2 2-2z" stroke="#4d4739" fill="#4d4739"/>
  <path d="m442 496l-2-2 2 1q2 1 4 2l1 1h1v1h1v1h1v1h1v1h1v1h1v9q1 8 3 9t4 5 3 4q1 1 3 6 2 4 3 6 1 1 2 2v1l1 1v5q2 5 2 6 2 1 0 5 0 5-2 8 0 3 0 4v1h-1q-1-1-2-2t-1 1l-2 3q0-1-4-3t-8-2-4 1q0 2-8 4-9 3-12 6-2 3-5 5t-5 5l-1 3h-3v-2q0-2-1-2-1-1-3-1-2-1-4-3-3-2-9-6l-6-2v-1h-1v-1l-1-1-1-1v-1h9v-5q1-5 1-17 2-12 4-13 3-1 3-4-1-4-2-5t-1-7q1-6-3-7t-5-4l-2-3h-1v-1h-1v-1h-1v-1h-1v-1h-1v-1h-1v-1h2v1h1v1h1l1 1 1 1h2q3 2 12 2 8 1 12-1 3-3 6-3t6 0q2 0 4 0 3 0 4 1l1 1h1v-4h1v-1h1v-2q0-2-2-5z" stroke="#d0d0cb" fill="#d0d0cb"/>
  <path d="m350 468h1l1 1q0 2 1 5 0 2 1 3 1 0 1 11 1 11 1 22 0 10 1 12l1 1v2h2l2 1 1 2v2l-1 6q0 6-3 13-2 7-3 7 0 0 0 1h-1v1h-1v2t-1 0v2h-1v4h1v1h1v1h10q11 2 12 2h2v1h1v1h3l1 1 1 1h-4q-3 0-4 2h-1v1h-1l2 3q2 3 2 8 0 4 4 8 4 3 4 14 0 10-2 15t-2 8 0 5v5h-1v1h-1v2l-1 1q-1 1-1 3 0 1-1 1-1 1-3 3-2 3-5 6-4 4-7 4t-5 1q-3 1-10 2-8 1-11 1-4 0-4 0 1 0-2-1-2-1-4 1-3 2-10 3-8 1-8 0t-2 0q-3 1-7 1h-6v1h-1v1h-2v-4h1l1-1v-1h2q1 0 2-1 1 0 1-5 1-4 3-6t4-4q1-3 0-3-1-1 2-1 2 0 5-5t5-13q0-9 9-10 9-2 10-4t2-4q2-1 2-8-1-7-5-13-6-6-8-7-2-2-7-1h-5v-1h1v-1h1v-1h1t2-6q1-5 1-7-1-3-2-6 0-3 1-3t2-3 1-6 1-10q2-7 0-9t-3-11v-9h-3v1l-1 1v6l-1-1-1-1v1l-1-7q-1-6-1-8l-1-1v-2q-1-2-3-6t-5-5l-3-1v-1h2l4-1q4-1 6-3 0-2 1-2h6l1-3q1-3 7-5t14-3 9-1z" stroke="#b3b0a7" fill="#b3b0a7"/>
  <path d="m277 857h7l-2 2q-3 2-2 4 1 1 0 2l-1 1h-5q-5 0-18-2l-13-1v-1h-2q-2 0-3-2l-1-2h21q12 0 19-1z" stroke="#474540" fill="#474540"/>
  <path d="m389 352l1-2v5l4 7q4 6 6 6t6 4q3 4 8 7 6 4 8 7 3 2 6 5 4 2 6 11 2 10 3 11l1 1v1h1v1h1v3h1l-2 10q-3 10-3 15 0 6-2 8t-3 7-8 8q-7 4-9 9-2 4-3 4l-1 1-1 1h-1l-1 1h-9q-9 1-12 1l-3 2h-2v1l-1 1v5l2 3q2 4 2 5v1l-2 11q-2 11-4 20t-3 11-3 6q-1 4-2 5 0 1-1 2 0 1 1 1 0 1 0 2-1 0-3 1l-2 1h-10l-1-1h-1v-1l1-1v-1h1v-1h1q0-1 0-1 1 0 3-7 3-7 3-13l1-6h1v-4q0-5 1-6 1-2 1-10 2-8 1-9t-3-7q-2-7-2-9 1-3 2-1 0 1 2 0v-7q0-1-2-1-1-1-2 0 0 2-1-4t1-10l2-3h4q1-1 2-1 0-1 1-10l1-9v-3q0-3 2-6 0-4 5-38l5-34h1v-1h1q0-1 0-1h1v-1q1 0 1-1v-1l1-1z" stroke="#979382" fill="#979382"/>
  <path d="m399 857h5v1h6l-1 1-1 1h-4l7 2q7 1 7 2t1 2h-1q-1 0-18 4l-18 3q0-1-7-1h-7l1-1 1-1h4q4-2 5-2h1l2-1 2-1h1l-7-1-6-1h-3l11-1 10-1h2l-1-1-1-1h-9v-1l7-1q6 0 11-1z" stroke="#77766f" fill="#77766f"/>
  <path d="m524 479h2v1t-6 4q-6 5-9 6l-3 2t3-4l3-4 4-2q5-2 6-3z" stroke="#b6b4ad" fill="#b6b4ad"/>
  <path d="m721 592v-1l5 1q4 0 5 2 0 1 5 0t4 0q0 2 1 2h1t-2 2h-3v1h-1q0 1-12 6l-13 5-4-1q-3-1 4-5 8-4 9-5l1-1h1l1-1h1v-3h-7l1-1q0-1 1-1h1t1 0z" stroke="#39352d" fill="#39352d"/>
  <path d="m184 847l1-1h18l1 1h2q0 1 1 1h1l16 2q15 2 20 3h5v1h-1v1h1v1h-1v1l-1 1h-16q-6 0-8-1h-2v-1h-5v-1h-1v1h-1t-13-3l-13-3-2-1q-1-1-2-1h-1l1-1z" stroke="#d5d5d2" fill="#d5d5d2"/>
  <path d="m206 724l1-4 1 2q2 2 2 3h1v3q1 3 1 4v2l-1 5v5h-1q-1 0-3-6l-2-6v-2q1-3 1-6z" stroke="#b9b6ac" fill="#b9b6ac"/>
  <path d="m165 836h2l7 1q7 1 7 2v1h1v1h1v1h-6v1h-3q-4-1-6-1-1 0-3-3-2-2 0-3z" stroke="#3e3b33" fill="#3e3b33"/>
  <path d="m274 873l-1-1h64q23 1 21 2 0 1-1 2h-5q-5 0-41 0h-36v-1q-1-1-1-2z" stroke="#777772" fill="#777772"/>
  <path d="m172 821l-4-7h1q1 0 5 4 3 4 4 4 0 0 0 1h1q0 1 1 1 0 0 0 1h1q0 1 1 1 0 0 0 1h1q0 1 1 1l3 1q3 1 3 1h1t1 1l1 1q1 0 1 0v1h1v1h1v2h-1l-4 1q-4 1-7 1l-3 1q0-1-7-2l-7-1h-5v-1h3l3-1h1q1 0 3 0h5v-1h1v-2l-1-1-1-2t-4-7z" stroke="#868073" fill="#868073"/>
  <path d="m174 344v2h1v3l1 3v1q0 1 3 0 2-1 2-3v-3l1-1t1 0l1 4q2 3 2 4t0 4v3h-1v-1h-1q-1 0-2 0 0 0-2 0-2 2-4 1l-3-1v-8q1-8 1-8z" stroke="#c6c4bf" fill="#c6c4bf"/>
  <path d="m288 487h9q0 1-3 5-4 4-7 4-4 0-5 3-2 2-4 2-2 1-12 3l-10 2q0-1-1-2-2 0-2-2l-1-1h1v-1h-1v-1h-1v-1h1v-1l1-1h2l7-4q8-2 13-4 5 0 13-1z" stroke="#aaa8a0" fill="#aaa8a0"/>
  <path d="m165 798l1-7 2 7q2 7 8 12 6 6 6 6h-6l4 5q4 5 4 6v1h-1q-1 0-3-4-3-3-7-6l-4-3v-1q-1 0-1 0t-2-3q-2-2-5-3h-4v1h-1v1h-1l-1 1h-1v-2h1l1-1h1v-1h1v-1h1l3-1q3-1 4-7z" stroke="#6d685e" fill="#6d685e"/>
  <path d="m123 824v-1l2 1q1 0 2 1t3 2h2l2 1q2 1 2 2t1 1v1l3 2q3 2 4 2h4q1 0 1 1h-1l-2 1h1l1 1q1 0 1 1v1h-1q-1-1-14-5l-12-4h-1v-1h-1v-1h-1v-1h2q2 0 2-2v-2h1q0-1 0-1h-1z" stroke="#858178" fill="#858178"/>
  <path d="m603 667l1-1h5l-6 10q-6 10-7 11v-1q0-1-2-2-1 0-1 1t-1 1h-2v-1q0-1 1-3l1-2v-1q0-1 2-2l1-1h1v-1l1-1 1-2v-1q1-1 1-1h1t0-1q1-1 1-1h1t0-1h1z" stroke="#a7a29b" fill="#a7a29b"/>
  <path d="m204 678h2l2 2q2 1 1 4-1 4-1 5v1t-1 0v1l-1 2q-2 2-4 2l-1 1h-1v1h-1v1h-2v1h-1v1t-1 0v1q-1 0-1 1 0 0-1 0v2q-1 0-1 2v3t-1 1h-1t-1 1h-1v-1t1-2q0-1-1-2h-2v1h-1v1h-1v1q-1 1-1 1h-1v1h-1v1h-1v5-7l1-1h1v-1q0-1 2-4 2-2 3-6 0-5-5-8l-4-2v-1h-1v-1h-6v-1h5l4 1h4l1-1h1v-4h1v-1h2l1-1h1v1q0 2 5 3 6 1 6-2 1-3 2-3z" stroke="#a5a29a" fill="#a5a29a"/>
  <path d="m575 223v-1h1l1 1h1v2h-1v1h-1v10q-2 9-5 19t-3 15q0 6-3 8-3 1-3 10t-1 12q0 2 9 5 10 3 11 3h1l1 1 1 1h1l1 1h1v2h-1q-1 1-2 1-2 2-2 3 1 1-1 1-2 1-2 2l-1 1v2l1 1 1 2v1h1v1h7q6 0 6 0h1v1q-1 1-1 2-2 1-4 4-3 3-12 5-8 2-12 3-4 0-6 3v3h-1v1h-2v-1h-1v-3q0-2-6-1l-5 1h-2v-1q0-1 1-1t2-2v-1h-1l-1-1h-4q-1 0-4 3-4 2-15 3l-11 2v-4h-2l2-1q1 0 0-1 0-2 2-2 1-2 2-2h1v-1h-1v-2h-1v-1h-1t-4-2q-3-2-11-3l-8-1h-3q-4 0-42-6l-38-6h17v-2l-1-1v-1t-2-2 0-3 2-2-2-1q-1-1 0-6 0-4 4-13t5-9 1-1 1-8-1-12q-1-5-2-4l-2 1h-1v-1h-1v-1l1-2 1-1v-1l1-1 1-1 3-1q4-1 6-1h2v1h1v-3q0-2 0-8v-6h5l2 3q2 3 8 3 6 2 11 2 5 2 10 0 6-2 11-1t7 2 12 3q9 2 12 2 2 0 3 0t1-2q1-2 10-2t10 0h3v2q0 2-1 2h-2v2h5v-1h1l-1-2q-1-2 2-3 3-2 9-3 6-2 6-3 0-2 4-2 4-1 4-2v-1h1v-1h1v-1h1z" stroke="#d7d6d2" fill="#d7d6d2"/>
  <path d="m562 464h3v1h1l-2 5q0 6-3 11-2 5-5 6t-4 8q-1 8-3 9-1 1-6 8-4 8-7 10-3 4-4 4-2 1-1 6t2 8q1 4 1 4l1 2v1h-1l-1-1h-1q-1 0-4 0-4 2-7 5-3 4-9 6-5 1-8 5-3 2-5 3-3 0-6-1-4-2-4-3-1-1-6-6l-6-5v-1h-1v-1h-1v-1h-1v-1h-1v-1h-1v-1h-1q-1-1-2-2-1-2-3-6-2-5-3-6-1 0-3-4t-4-5-3-9v-10l-1-2v-2h-1t-1-2l-2-2v-4h1v-1h1v-1h5l4 2q4 0 9 1 4 1 14 2 11 1 18 1 6 0 7-1t1-1l3-2q3-1 9-6 6-4 6-4v-1h1l6-3q6-2 7-3 0-1 1-1v-1l6-1q5-2 7-3t2-2h2q2-1 4-1z" stroke="#9e998e" fill="#9e998e"/>
  <path d="m964 505h2v1h-1v1h-1l2 1q1 1 0 2 0 2 0 2-1 0-26 10l-26 10h-3l-1-1-1-1h-3v-1l1-1h2l2-1 2-1 15-7q14-7 24-11 11-2 12-3z" stroke="#322c22" fill="#322c22"/>
  <path d="m586 686l6-6-1 2q-1 2-1 3v1h2q1 0 1-1t1-1q2 1 2 2v1l-8 13q-8 14-9 18-1 3-2 4v1h-1v1h-1v1h-1v1h-2v-1l-1-1-1-1v-3h-1v-1h-1v-1l-1-1-1-1v-7h1v1l1 2h2l1-2 1-2v-2l1-2q1-1 4-6 3-6 9-12z" stroke="#847c6d" fill="#847c6d"/>
  <path d="m250 716v5l-1 2v2l-2 4q-3 4-3 6v2l-2 2q-2 2-3 3-1 0-1-1v-5l1-6q1-6 1-7 1-1 2-4l2-4-1-1v-1h-1q-1 0-1-1t-7-2h-7v-1h11q11 1 12 2 0 2 0 5z" stroke="#a6a499" fill="#a6a499"/>
  <path d="m242 739l2-2-1 4q-1 4 0 7 0 2-1 2t-1 1-2 3q-3 2-3 4 0 1 1 2v2q-1 0-1 1v1l-1-1-1-1v-1h-1v-5q1-4 1-6 2-1 3-4l2-4q1-1 3-3z" stroke="#b1aea7" fill="#b1aea7"/>
  <path d="m523 810h1l1-1h1v2h-1v1l-2 1q-3 2-3 3h-1q-1 0-12 6l-11 6t-5 2-14 4l-9 2-1 1-1 1h-1q-1 0-6 2l-5 1h-2l-3-1h-2v-1h1v-1h1v-1h3q2-1 3-1h1v-2h1v-2h-1q0-1-2-2-1 0-2-2v-3h-1v-1h2l1-1 2-1h1v1h1v1l1 1v1h3l1 1h9q8-1 24-7 17-8 19-8h6v-1h1v-1h1z" stroke="#27241f" fill="#27241f"/>
  <path d="m367 864h5l6 1 7 1h-1l-2 1-2 1h-1q-1 0-5 2h-4l-1 1-1 1h7q7 0 7 1h-4q-5 1-13 2l-8 1q1-1 1-2 2-1-21-2h-23l2-1 1-1h-6l1-1 2-1h-1v-2h4l24-1q24-1 26-1z" stroke="#9d9791" fill="#9d9791"/>
  <path d="m211 634l4-2 1 1q0 1 1 1t1 0-1 0v1q-1 0-1 1l-1 2q-1 1-2 2l-3 3q-3 3-3 2h-1v1t-1 1v1h-1q-2 0-2 1-1 1-2 1h-1q1-1 2-4l1-2h1v-1h1v-1t2-3 5-5z" stroke="#777164" fill="#777164"/>
  <path d="m146 767l1-1h3q3 0 4 1l2 1h2l2 1 1 1h1v4h-1l-1 1-2 1h-2q-2 0-4-1l-1-1q-1-1-3-4-2-2-2-3z" stroke="#28261f" fill="#28261f"/>
  <path d="m181 346v4q0 2-2 3-3 1-3 0v-1l-1-3v-5l1-1v-1h2l1 1q1 1 2 3z" stroke="#95938e" fill="#95938e"/>
  <path d="m496 828l1 1q1 1 1 1l1 1q1 1 1 1l-1 1-1 1v1h-1v1h-1l-1 1-1 1h2t-2 2q-1 0-9 2t-9 4q0 1-2 1h-3q0-1-1-1-2 0-2-1v-1t2-1q1-1-1-1l-2-2h1v-2h-2l1-1 1-1 9-2q9-2 14-4t5-2z" stroke="#a5a29a" fill="#a5a29a"/>
  <path d="m309 514l2-13 1 1q0 2 1 8l1 7v-1q0-2 1-2t1-1v-1l1-1v-1h3v9q1 9 3 11t0 9q-1 7-1 10t-1 6-2 3-1 3q1 3 2 6 0 2-1 7-2 6-2 6h-1v1h-1v1h-1v1t-4 2q-3 3-10 5-8 2-14 2h-7 7v-1h1q0-1 1-1t2-2q0-2 3-9 2-7 6-13t5-11q0-4 0-5-1 0 0-5 0-4 2-5 2-2 2-8 0-5 1-18z" stroke="#b3b1aa" fill="#b3b1aa"/>
  <path d="m120 824h3v3q0 2-2 2h-2v-1q-1 0-1 0v-1l-1-1q0-2 3-2z" stroke="#e4e1d9" fill="#e4e1d9"/>
  <path d="m186 738v2q0 3-2 8 0 4 0 4v1l-1 1v1h-1q-2 0-2-2-1-2-3-2-2 1-3 2l-2 1v-2q0-2 0-4v-2l-2-1h-3v-1q1 0 2-1l2-1h1q2 0 2-2v-1l2 2q2 1 3 1h1v-1t2-3l1-2h1q0-1 1 0t1 2z" stroke="#c6c6bf" fill="#c6c6bf"/>
  <path d="m206 741l-1-9 2 6q2 6 3 6h1l1 2q0 1 1 4v6q1 2 1 12t0 10v1q0 1 0 1h1v4h-2l-1-1v-1h-1v-1h-1v-1l-1-1-1-1v-1h-1q0-1-1-3-2-3-2-10t1-11q1-3 1-12z" stroke="#d1d1ca" fill="#d1d1ca"/>
  <path d="m543 799h-2l-2 1h-1v1l-1 2q0 3 1 3 2 0-4 6-5 6-6 8 0 1-2 2-3 2-4 2 0-1-1-1 0-1 4-5t-1-3l-4 1q0-1 3-3l2-1v-1h1v-2h-1l-1 1h-2v1h-1v1h-4l1-1 1-1h1v-1h1v-1h1v-1h1v-1l5-1q5-1 5-2h1l1-1h1l1-2q1-2 3-2 3 0 3 1z" stroke="#938f87" fill="#938f87"/>
  <path d="m144 827l3-1 2 1q3 1 3 3 1 2 2 2l1 2q1 2 0 2t-3 1h-3q0-1-1-1h-2q0-1-2-3l-1-1v-1h-1v-1t0-1 2-2z" stroke="#3d3932" fill="#3d3932"/>
  <path d="m220 710h14q7 1 7 2t1 1h1v1l1 1-2 4q-1 3-2 4 0 1-1 7l-1 6v5q0 1 1 1l-2 4q-1 3-3 4 0 2-1 6v5l-2 1q-2 2-2 2h-1v1l-1 1-1 1v1h-4v-1l-1-1-1-1v-1h-1q-1 0-2-4t-2-6l-2-1v-3q-1-3-1-4l-1-2v-5l1-5v-2q0-1-1-4v-4q1-2 2-8 1-7 7-6z" stroke="#8a8474" fill="#8a8474"/>
  <path d="m112 818l3-1 3 1q4 2 8 2h4l3 2q3 0 3 1h1v2q0 1-3 2h-4q-2-1-3-2t-2-1l-2-1h-2q-2-1-5-1h-4v-1h-1q0-1-1-2 0-1 2-1z" stroke="#544f48" fill="#544f48"/>
  <path d="m410 653h1q0 1 1 1l4 8q4 9 4 23t2 16q1 3 0 3 0 1 0 2t0 2q0 0 1 0v1h1v3h-1l-3 1h-4q-1-1-3-1t-13-2h-10v-3q0-2 0-5 2-4 2-24t4-25q3-5 6-5 4 0 6 2 1 3 2 3z" stroke="#cccabf" fill="#cccabf"/>
  <path d="m146 568l2-4 2-1h2l2 2q3 1 3 2l-3 1q-2 0-2 2 1 2 1 10t1 8q2 0 1 2t-3 3q-3 0-3 1l-1 2v1l1 1v1h-1l-2 1h-1v-1h-1v-1l-1-2-1-1v-2q0-2-1-2v-3q1-2 1-8l1-7h1q0-1 0-1 1 0 2-4z" stroke="#79766a" fill="#79766a"/>
  <path d="m556 802t0 1h-1l-4 4q-4 5-15 11-10 8-12 8h-2v1h-1v1h-1l-2 1h-2v1h-2v-1h1v-1h1l1-1 1-1h2l1-1q1-1 1-1 1 0 4-2 2-1 2-2 1-2 6-8 6-6 4-6-1 0-1-3l1-2v-1h1l2-1h7q1-1 3-2 1-1 2 0t3 1q2-1 1 1t-1 3z" stroke="#413f39" fill="#413f39"/>
  <path d="m148 752l19-7h3l2 1v2q0 2 0 4v2l-1 2q-1 2-2 9t-1 15q-2 9-2 10v1l-1 7q-1 6-4 7l-3 1h-4q-3 0-3-2 1-2 2-4 1-1 3-8 0-6 0-8 0-1-1-1-1-1-7-5-5-6-3-6h3v1h1v1h2l1 1q2 1 4 1h2l2-1 1-1h1v-4h-1l-1-1-2-1h-2l-2-1q-1-1-4-1h-6q-2 0-3 1-1 0-1 1t-4 2q-4 2-8 3-2 1-3 2 0 1-3 2-4 1-9 4t-5 4-1 1-1 1-2 2-4 1h-2l-1 1v1h-3v-7h1v-1h1v-1t3-2q2-2 2-3t2-2q2-2 14-9 11-7 31-15z" stroke="#15130f" fill="#15130f"/>
  <path d="m213 756v-3l2 1q1 2 2 6t2 4h1v1l1 1 1 1v1h4v-1l1-1 1-1v-1h1t2-2l2-1h1v1h2t1 0v2q0 1-2 3-2 1-1 4 0 3-1 7-1 3-2 4l-1 1v1h2q3 2 3 2h1v1h-1v1h-5v-2h-2q-1 0-4-1t-6-3l-3-2q-1-1-1-1v-1t0-10-1-12z" stroke="#b1aea5" fill="#b1aea5"/>
  <path d="m294 668h-2v1l-1 1h-1v1l-2 1q-1 2-4 2t-3 1q-1 1-1 3v1h-1v1h-2v-1h-1v-1t0-1-4-3q-4 0-6-3-2-2-6-4-3-3-4-6-2-3-4-4t-4-4q-2-2-2-5 0-4-3-5-2-1-3-2 0-2-6-8l-6-7h-3l1-1v-1h3v1q1 0 1-3 1-2 3-2t3-1q0-2 4-4l5-2v-1q0-2-1-2-2 0-2-2-1-1 2-2 2 0 1-1l-1-1q1 0 0-1l3-2q3-3 7-3 4-2 10-2h14l-1-1-1-1t-2-1h-2v-2h1l1 1h12q6 0 14-2 7-2 10-5 4-2 4-2h5q5-1 7 1 2 1 8 7 4 6 5 13 0 7-2 8-1 2-2 4t-10 4q-9 1-9 10-2 8-5 13t-4 5q-1 1-3 4-2 2-4 4t-3 6q0 5-1 5-1 1-2 1zm9-20q1 0 1 0-1 0-1 0zm-25 27t1 0q0 1-1 1 0 0 0-1z" stroke="#8d887c" fill="#8d887c"/>
  <path d="m298 858l-2-1 29 1q29 0 43 1h13v1h9l1 1 1 1h-2l-10 1-11 1h-2q-2 0-26 1l-24 1t-1-1q-1 0 0-2 0-2-8-3-9 0-10-2z" stroke="#48443d" fill="#48443d"/>
  <path d="m109 801l9 4q8 3 8 4h-2l-3-1h-6q-6 0-9-1-2-1-6-2l-3-1-3-1h-2l8-1q9 0 9-1z" stroke="#a6a49b" fill="#a6a49b"/>
  <path d="m999 500h1v10h-3l-1 1-1 1h-1q-2 0-86 33-85 33-84 33 0 0-21 8t-34 13l-13 5t-2 0q-1 0-35 14l-34 14h-8v-1l1-1v-1h1v-1h1v-1l1-1h1v-1h1q1 0 1-1l14-7q13-7 13-7l13-5q12-5 12-6h1v-1h3q2-2 2-2l44-17q44-17 45-17h1t1 0v-1h1l2-1 38-14q37-14 37-14h3l26-10q25-10 26-10l16-6q16-6 17-6z" stroke="#d3d2ce" fill="#d3d2ce"/>
  <path d="m604 653l-1 1h-1q-1 0-1 1h1v1h-2q-1 2-2 5 0 3-1 4 0 1 0 2h-1v2l-1 3v4l-1 1q-2 1-2 2v1l-6 6q-6 6-9 12-3 5-4 6l-1 2v2l-1 2-1 2h-2l-1-2v-3l1-1v-4q0-3-1-9v-7q-1 0-1 0v-4q0-4 1-4v-1h1q0-1 0-1h1v-1h1v-1l13-10q13-11 14-11l3-1q4-2 6-2 1-1 0 1 0 1-2 2z" stroke="#181511" fill="#181511"/>
  <path d="m166 502v-8h2q1 1 1 2l1 2 1 1 1 1h5l6 2q6 3 7 2 0 0 3 0t3-1q1-1 6-3 4 0 8-2t4-3h1v1h4q4 2 9 2h4v2h-3v1h-1v1h-1v1h-1l-1 2q-1 2-1 3t1 1q1 1-3 1-5 1-5 2t-6 2q-7 1-7 4v2l-1 1v1h-5v1h-2q-2 1-2 2-1 2-2 2-2 0-2-1t-4-2q-5 0-7-2-1-2-6-3t-4-3l1-1v-2h-1v-1h-1v-1h-1v-1q-1-1-1-8z" stroke="#a19d95" fill="#a19d95"/>
  <path d="m207 690h1v3q0 3 2 7 1 4 5 4 4 2 5 3 2 1 4 2h3v1h-7q-6-1-7 6-1 6-2 8v1h-1q0-1-2-3l-1-2v-2q-1-2-4-9-4-7-6-7h-2l-1 1h-1v-1l1-1v-1h2v-1h1v-1h2v-1h1v-1h1l1-1q2 0 3-3 1-2 2-2z" stroke="#b2b0a9" fill="#b2b0a9"/>
  <path d="m275 433h1v1h2v3l-1 1v1q-1 0-1 1-2 1-5 2-3 2-2 2t1 2q-1 1-2 1-1-1-8 2l-7 2h-1q-2-1-10-1l-9-1v-2h1l1-1h5l2-4q2-2 6-3t4-2 10-1q11 0 11-1h1v-1h1v-1z" stroke="#b6b4ae" fill="#b6b4ae"/>
  <path d="m466 844h2v1q0 1 2 1 1 0 1 1h-2q-2 1-3 1t0 1q2 1 2 2t-5 1q-4 1-4 2-1 1-20 6l-20 6q-1-1-1-2t-7-2l-7-2h4l1-1 1-1h-6v-1h1l1-1h6q6-2 6-2 1 0 2-1h2l6-1q6 0 14-2 7-2 15-4t9-2z" stroke="#747169" fill="#747169"/>
  <path d="m164 466l1-8h1v1h1l1 5q0 4 1 5l1 1h1l1 1 1 1h1v3h1v1h1v1h1l1 7q0 6 0 8-2 2-2 4v3l1 1v2h-2v-2h-3l-1-1-1-1-1-2q0-1-1-2h-2v-2q0-1-1-10 0-8-1-8-2 0 0-8z" stroke="#9c9990" fill="#9c9990"/>
  <path d="m142 616v1h1l1 1h2v2l1 1 1 1v3q-1 3 0 3 2 1 1 4t-3 10q-2 8-3 10t-2 3l-1 1h-1v1h-1v3l1 1v1h-2v-2l-1-1v-3q0-2 0-18 0-15 1-18l1-3 2-1q2-2 2 0z" stroke="#7b776b" fill="#7b776b"/>
  <path d="m123 532v6l1 1-2 2q-2 2-2 5-1 4-3 4-1 0-2 0l-1 1-2 1v4h-2v-1h-1v-1h-1v-3h-1v-1h1v-10q0-10 0-12 0-1 2-10 2-10 2-19l1-9h1q0 1 1 0 1 0 5 3t2 6q0 3-2 5 0 2 0 3 2 1 2 3t1 5-1 3q-1 0-2 4t2 5q2 1 2 1t-1 4z" stroke="#b9b8b3" fill="#b9b8b3"/>
  <path d="m179 317l2 1q1 0 4 6 3 5 3 7 1 3 2 3t0 2-4 3q-2 0-2 3t-1 4q-1 0-1 0l-1 1v-1q-1-2-2-3l-1-1h-2v1l-1 1v2h-1v-5q0-3 2-13l2-10q1 0 1-1z" stroke="#cccbc7" fill="#cccbc7"/>
  <path d="m210 643l3-3v2q1 1-1 8-2 6-2 10t-2 6q-2 1-2 4 0 2-2 3t-2 1v1l-1 1v1h3q2 1 2 1h-2q-1 0-2 3 0 3-6 2-5-1-5-3v-1h-1l-1 1h-2v-2l-1-1v-1h-1v-2h1q1 0 6-6 6-6 7-9t4-5q2-2 2-4v-3q1-1 1-1v-1h1q0 1 3-2z" stroke="#9e9b92" fill="#9e9b92"/>
 </g>
</svg>
